  0
SECTION
  2
HEADER
  9
$ACADVER
  1
AC1014
  9
$HANDSEED
  5
FFFF
  9
$MEASUREMENT
 70
     1
  0
ENDSEC
  0
SECTION
  2
TABLES
  0
TABLE
  2
VPORT
  5
8
330
0
100
AcDbSymbolTable
 70
     4
  0
VPORT
  5
2E
330
8
100
AcDbSymbolTableRecord
100
AcDbViewportTableRecord
  2
*ACTIVE
 70
     0
 10
0.0
 20
0.0
 11
1.0
 21
1.0
 12
210.0
 22
148.5
 13
0.0
 23
0.0
 14
10.0
 24
10.0
 15
10.0
 25
10.0
 16
0.0
 26
0.0
 36
1.0
 17
0.0
 27
0.0
 37
0.0
 40
341.0
 41
1.24
 42
50.0
 43
0.0
 44
0.0
 50
0.0
 51
0.0
 71
     0
 72
   100
 73
     1
 74
     3
 75
     0
 76
     0
 77
     0
 78
     0
  0
ENDTAB
  0
TABLE
  2
LTYPE
  5
5
330
0
100
AcDbSymbolTable
 70
     1
  0
LTYPE
  5
14
330
5
100
AcDbSymbolTableRecord
100
AcDbLinetypeTableRecord
  2
BYBLOCK
 70
     0
  3

 72
    65
 73
     0
 40
0.0
  0
LTYPE
  5
15
330
5
100
AcDbSymbolTableRecord
100
AcDbLinetypeTableRecord
  2
BYLAYER
 70
     0
  3

 72
    65
 73
     0
 40
0.0
  0
LTYPE
  5
16
330
5
100
AcDbSymbolTableRecord
100
AcDbLinetypeTableRecord
  2
CONTINUOUS
 70
     0
  3
Solid line
 72
    65
 73
     0
 40
0.0
  0
ENDTAB
  0
TABLE
  2
LAYER
  5
2
100
AcDbSymbolTable
 70
2
  0
LAYER
  5
50
100
AcDbSymbolTableRecord
100
AcDbLayerTableRecord
  2
0
 70
0
  6
CONTINUOUS
  0
LAYER
  5
51
100
AcDbSymbolTableRecord
100
AcDbLayerTableRecord
  2
Image
 70
0
  6
CONTINUOUS
  0
ENDTAB
  0
TABLE
  2
STYLE
  5
3
330
0
100
AcDbSymbolTable
 70
     1
  0
STYLE
  5
11
330
3
100
AcDbSymbolTableRecord
100
AcDbTextStyleTableRecord
  2
STANDARD
 70
     0
 40
0.0
 41
1.0
 50
0.0
 71
     0
 42
2.5
  3
txt
  4

  0
ENDTAB
  0
TABLE
  2
VIEW
  5
6
330
0
100
AcDbSymbolTable
 70
     0
  0
ENDTAB
  0
TABLE
  2
UCS
  5
7
330
0
100
AcDbSymbolTable
 70
     0
  0
ENDTAB
  0
TABLE
  2
APPID
  5
9
330
0
100
AcDbSymbolTable
 70
     2
  0
APPID
  5
12
330
9
100
AcDbSymbolTableRecord
100
AcDbRegAppTableRecord
  2
ACAD
 70
     0
  0
ENDTAB
  0
TABLE
  2
DIMSTYLE
  5
A
330
0
100
AcDbSymbolTable
 70
     1
  0
DIMSTYLE
105
27
330
A
100
AcDbSymbolTableRecord
100
AcDbDimStyleTableRecord
  2
ISO-25
 70
     0
  3

  4

  5

  6

  7

 40
1.0
 41
2.5
 42
0.625
 43
3.75
 44
1.25
 45
0.0
 46
0.0
 47
0.0
 48
0.0
140
2.5
141
2.5
142
0.0
143
0.03937007874016
144
1.0
145
0.0
146
1.0
147
0.625
 71
     0
 72
     0
 73
     0
 74
     0
 75
     0
 76
     0
 77
     1
 78
     8
170
     0
171
     3
172
     1
173
     0
174
     0
175
     0
176
     0
177
     0
178
     0
270
     2
271
     2
272
     2
273
     2
274
     3
340
11
275
     0
280
     0
281
     0
282
     0
283
     0
284
     8
285
     0
286
     0
287
     3
288
     0
  0
ENDTAB
  0
TABLE
  2
BLOCK_RECORD
  5
1
330
0
100
AcDbSymbolTable
 70
     1
  0
BLOCK_RECORD
  5
1F
330
1
100
AcDbSymbolTableRecord
100
AcDbBlockTableRecord
  2
*MODEL_SPACE
  0
BLOCK_RECORD
  5
1B
330
1
100
AcDbSymbolTableRecord
100
AcDbBlockTableRecord
  2
*PAPER_SPACE
  0
ENDTAB
  0
ENDSEC
  0
SECTION
  2
BLOCKS
  0
BLOCK
  5
20
330
1F
100
AcDbEntity
  8
0
100
AcDbBlockBegin
  2
*MODEL_SPACE
 70
     0
 10
0.0
 20
0.0
 30
0.0
  3
*MODEL_SPACE
  1

  0
ENDBLK
  5
21
330
1F
100
AcDbEntity
  8
0
100
AcDbBlockEnd
  0
BLOCK
  5
1C
330
1B
100
AcDbEntity
 67
     1
  8
0
100
AcDbBlockBegin
  2
*PAPER_SPACE
  1

  0
ENDBLK
  5
1D
330
1B
100
AcDbEntity
 67
     1
  8
0
100
AcDbBlockEnd
  0
ENDSEC
  0
SECTION
  2
ENTITIES
  0
SPLINE
  5
100
100
AcDbEntity
  8
Image
 62
7
100
AcDbSpline
 70
8
 71
3
 72
8
 73
4
 74
0
 40
0
 40
0
 40
0
 40
0
 40
1
 40
1
 40
1
 40
1
 10
18.993543
 20
1.957887
 30
0.0
 10
18.756525
 20
2.042418
 30
0.0
 10
18.592881
 20
2.277635
 30
0.0
 10
18.561374
 20
2.579071
 30
0.0
  0
SPLINE
  5
101
100
AcDbEntity
  8
Image
 62
7
100
AcDbSpline
 70
8
 71
3
 72
8
 73
4
 74
0
 40
0
 40
0
 40
0
 40
0
 40
1
 40
1
 40
1
 40
1
 10
18.561374
 20
2.579071
 30
0.0
 10
18.518021
 20
2.993854
 30
0.0
 10
18.808861
 20
3.914987
 30
0.0
 10
19.320046
 20
4.981896
 30
0.0
  0
SPLINE
  5
102
100
AcDbEntity
  8
Image
 62
7
100
AcDbSpline
 70
8
 71
3
 72
8
 73
4
 74
0
 40
0
 40
0
 40
0
 40
0
 40
1
 40
1
 40
1
 40
1
 10
18.980052
 20
5.344594
 30
0.0
 10
17.104214
 20
5.293697
 30
0.0
 10
16.031269
 20
5.242956
 30
0.0
 10
14.781805
 20
5.146054
 30
0.0
  0
SPLINE
  5
103
100
AcDbEntity
  8
Image
 62
7
100
AcDbSpline
 70
8
 71
3
 72
8
 73
4
 74
0
 40
0
 40
0
 40
0
 40
0
 40
1
 40
1
 40
1
 40
1
 10
14.781805
 20
5.146054
 30
0.0
 10
11.049021
 20
4.856557
 30
0.0
 10
8.220673
 20
4.259475
 30
0.0
 10
7.639634
 20
3.638297
 30
0.0
  0
SPLINE
  5
104
100
AcDbEntity
  8
Image
 62
7
100
AcDbSpline
 70
8
 71
3
 72
8
 73
4
 74
0
 40
0
 40
0
 40
0
 40
0
 40
1
 40
1
 40
1
 40
1
 10
7.639634
 20
3.638297
 30
0.0
 10
7.531546
 20
3.522742
 30
0.0
 10
7.516898
 20
3.493481
 30
0.0
 10
7.524042
 20
3.407379
 30
0.0
  0
SPLINE
  5
105
100
AcDbEntity
  8
Image
 62
7
100
AcDbSpline
 70
8
 71
3
 72
8
 73
4
 74
0
 40
0
 40
0
 40
0
 40
0
 40
1
 40
1
 40
1
 40
1
 10
7.524042
 20
3.407379
 30
0.0
 10
7.531341
 20
3.319393
 30
0.0
 10
7.547880
 20
3.299281
 30
0.0
 10
7.677742
 20
3.220473
 30
0.0
  0
LWPOLYLINE
  5
106
100
AcDbEntity
  8
Image
 62
7
100
AcDbPolyline
 90
3
 70
0
 10
19.320046
 20
4.981896
 30
0.0
 10
19.500591
 20
5.358717
 30
0.0
 10
18.980052
 20
5.344594
 30
0.0
  0
SPLINE
  5
107
100
AcDbEntity
  8
Image
 62
7
100
AcDbSpline
 70
8
 71
3
 72
8
 73
4
 74
0
 40
0
 40
0
 40
0
 40
0
 40
1
 40
1
 40
1
 40
1
 10
7.677742
 20
3.149640
 30
0.0
 10
7.062053
 20
3.223588
 30
0.0
 10
6.510798
 20
3.496507
 30
0.0
 10
6.444631
 20
3.760138
 30
0.0
  0
SPLINE
  5
108
100
AcDbEntity
  8
Image
 62
7
100
AcDbSpline
 70
8
 71
3
 72
8
 73
4
 74
0
 40
0
 40
0
 40
0
 40
0
 40
1
 40
1
 40
1
 40
1
 10
6.444631
 20
3.760138
 30
0.0
 10
6.411720
 20
3.891267
 30
0.0
 10
6.481465
 20
4.039192
 30
0.0
 10
6.658030
 20
4.212739
 30
0.0
  0
SPLINE
  5
109
100
AcDbEntity
  8
Image
 62
7
100
AcDbSpline
 70
8
 71
3
 72
8
 73
4
 74
0
 40
0
 40
0
 40
0
 40
0
 40
1
 40
1
 40
1
 40
1
 10
6.658030
 20
4.212739
 30
0.0
 10
7.227197
 20
4.772182
 30
0.0
 10
9.046238
 20
5.221376
 30
0.0
 10
11.937534
 20
5.516460
 30
0.0
  0
SPLINE
  5
10a
100
AcDbEntity
  8
Image
 62
7
100
AcDbSpline
 70
8
 71
3
 72
8
 73
4
 74
0
 40
0
 40
0
 40
0
 40
0
 40
1
 40
1
 40
1
 40
1
 10
11.937534
 20
5.516460
 30
0.0
 10
13.684425
 20
5.694746
 30
0.0
 10
16.346665
 20
5.834071
 30
0.0
 10
18.025289
 20
5.835053
 30
0.0
  0
SPLINE
  5
10b
100
AcDbEntity
  8
Image
 62
7
100
AcDbSpline
 70
8
 71
3
 72
8
 73
4
 74
0
 40
0
 40
0
 40
0
 40
0
 40
1
 40
1
 40
1
 40
1
 10
18.025289
 20
5.835053
 30
0.0
 10
18.339445
 20
5.835238
 30
0.0
 10
18.863320
 20
5.843200
 30
0.0
 10
19.189456
 20
5.852748
 30
0.0
  0
LWPOLYLINE
  5
10c
100
AcDbEntity
  8
Image
 62
7
100
AcDbPolyline
 90
3
 70
0
 10
7.677742
 20
3.220473
 30
0.0
 10
7.823263
 20
3.132162
 30
0.0
 10
7.677742
 20
3.149640
 30
0.0
  0
SPLINE
  5
10d
100
AcDbEntity
  8
Image
 62
7
100
AcDbSpline
 70
8
 71
3
 72
8
 73
4
 74
0
 40
0
 40
0
 40
0
 40
0
 40
1
 40
1
 40
1
 40
1
 10
19.965499
 20
6.190092
 30
0.0
 10
20.348484
 20
6.859505
 30
0.0
 10
20.744026
 20
7.480271
 30
0.0
 10
21.514893
 20
8.621717
 30
0.0
  0
SPLINE
  5
10e
100
AcDbEntity
  8
Image
 62
7
100
AcDbSpline
 70
8
 71
3
 72
8
 73
4
 74
0
 40
0
 40
0
 40
0
 40
0
 40
1
 40
1
 40
1
 40
1
 10
21.514893
 20
8.621717
 30
0.0
 10
21.536415
 20
8.653584
 30
0.0
 10
21.358258
 20
8.490563
 30
0.0
 10
21.118990
 20
8.259447
 30
0.0
  0
SPLINE
  5
10f
100
AcDbEntity
  8
Image
 62
7
100
AcDbSpline
 70
8
 71
3
 72
8
 73
4
 74
0
 40
0
 40
0
 40
0
 40
0
 40
1
 40
1
 40
1
 40
1
 10
21.118990
 20
8.259447
 30
0.0
 10
20.149231
 20
7.322730
 30
0.0
 10
19.477611
 20
6.826628
 30
0.0
 10
19.135197
 20
6.794089
 30
0.0
  0
SPLINE
  5
110
100
AcDbEntity
  8
Image
 62
7
100
AcDbSpline
 70
8
 71
3
 72
8
 73
4
 74
0
 40
0
 40
0
 40
0
 40
0
 40
1
 40
1
 40
1
 40
1
 10
19.135197
 20
6.794089
 30
0.0
 10
19.032576
 20
6.784338
 30
0.0
 10
18.995923
 20
6.795547
 30
0.0
 10
18.882846
 20
6.871274
 30
0.0
  0
SPLINE
  5
111
100
AcDbEntity
  8
Image
 62
7
100
AcDbSpline
 70
8
 71
3
 72
8
 73
4
 74
0
 40
0
 40
0
 40
0
 40
0
 40
1
 40
1
 40
1
 40
1
 10
18.882846
 20
6.871274
 30
0.0
 10
18.691102
 20
6.999680
 30
0.0
 10
18.578575
 20
7.179442
 30
0.0
 10
18.578575
 20
7.357346
 30
0.0
  0
SPLINE
  5
112
100
AcDbEntity
  8
Image
 62
7
100
AcDbSpline
 70
8
 71
3
 72
8
 73
4
 74
0
 40
0
 40
0
 40
0
 40
0
 40
1
 40
1
 40
1
 40
1
 10
18.578575
 20
7.357346
 30
0.0
 10
18.578575
 20
7.635058
 30
0.0
 10
18.837003
 20
8.254305
 30
0.0
 10
19.139282
 20
8.700916
 30
0.0
  0
LWPOLYLINE
  5
113
100
AcDbEntity
  8
Image
 62
7
100
AcDbPolyline
 90
3
 70
0
 10
19.189456
 20
5.852748
 30
0.0
 10
19.782430
 20
5.870110
 30
0.0
 10
19.965499
 20
6.190092
 30
0.0
  0
SPLINE
  5
114
100
AcDbEntity
  8
Image
 62
7
100
AcDbSpline
 70
8
 71
3
 72
8
 73
4
 74
0
 40
0
 40
0
 40
0
 40
0
 40
1
 40
1
 40
1
 40
1
 10
19.026860
 20
8.663391
 30
0.0
 10
18.452509
 20
8.145382
 30
0.0
 10
17.552750
 20
7.427505
 30
0.0
 10
17.079058
 20
7.109327
 30
0.0
  0
SPLINE
  5
115
100
AcDbEntity
  8
Image
 62
7
100
AcDbSpline
 70
8
 71
3
 72
8
 73
4
 74
0
 40
0
 40
0
 40
0
 40
0
 40
1
 40
1
 40
1
 40
1
 10
17.079058
 20
7.109327
 30
0.0
 10
16.821493
 20
6.936322
 30
0.0
 10
16.532934
 20
6.787943
 30
0.0
 10
16.453980
 20
6.787908
 30
0.0
  0
SPLINE
  5
116
100
AcDbEntity
  8
Image
 62
7
100
AcDbSpline
 70
8
 71
3
 72
8
 73
4
 74
0
 40
0
 40
0
 40
0
 40
0
 40
1
 40
1
 40
1
 40
1
 10
16.453980
 20
6.787908
 30
0.0
 10
16.247669
 20
6.787829
 30
0.0
 10
15.879825
 20
7.270055
 30
0.0
 10
15.879825
 20
7.540617
 30
0.0
  0
SPLINE
  5
117
100
AcDbEntity
  8
Image
 62
7
100
AcDbSpline
 70
8
 71
3
 72
8
 73
4
 74
0
 40
0
 40
0
 40
0
 40
0
 40
1
 40
1
 40
1
 40
1
 10
15.879825
 20
7.540617
 30
0.0
 10
15.879825
 20
7.700396
 30
0.0
 10
15.948412
 20
7.937879
 30
0.0
 10
16.059782
 20
8.163721
 30
0.0
  0
SPLINE
  5
118
100
AcDbEntity
  8
Image
 62
7
100
AcDbSpline
 70
8
 71
3
 72
8
 73
4
 74
0
 40
0
 40
0
 40
0
 40
0
 40
1
 40
1
 40
1
 40
1
 10
16.059782
 20
8.163721
 30
0.0
 10
16.113603
 20
8.272861
 30
0.0
 10
16.161995
 20
8.372253
 30
0.0
 10
16.167321
 20
8.384592
 30
0.0
  0
SPLINE
  5
119
100
AcDbEntity
  8
Image
 62
7
100
AcDbSpline
 70
8
 71
3
 72
8
 73
4
 74
0
 40
0
 40
0
 40
0
 40
0
 40
1
 40
1
 40
1
 40
1
 10
16.167321
 20
8.384592
 30
0.0
 10
16.172646
 20
8.396930
 30
0.0
 10
16.028445
 20
8.288515
 30
0.0
 10
15.846873
 20
8.143669
 30
0.0
  0
SPLINE
  5
11a
100
AcDbEntity
  8
Image
 62
7
100
AcDbSpline
 70
8
 71
3
 72
8
 73
4
 74
0
 40
0
 40
0
 40
0
 40
0
 40
1
 40
1
 40
1
 40
1
 10
15.846873
 20
8.143669
 30
0.0
 10
14.484022
 20
7.056476
 30
0.0
 10
13.427967
 20
6.600449
 30
0.0
 10
12.883496
 20
6.864023
 30
0.0
  0
SPLINE
  5
11b
100
AcDbEntity
  8
Image
 62
7
100
AcDbSpline
 70
8
 71
3
 72
8
 73
4
 74
0
 40
0
 40
0
 40
0
 40
0
 40
1
 40
1
 40
1
 40
1
 10
12.883496
 20
6.864023
 30
0.0
 10
12.620270
 20
6.991448
 30
0.0
 10
12.414569
 20
7.283744
 30
0.0
 10
12.414042
 20
7.531103
 30
0.0
  0
SPLINE
  5
11c
100
AcDbEntity
  8
Image
 62
7
100
AcDbSpline
 70
8
 71
3
 72
8
 73
4
 74
0
 40
0
 40
0
 40
0
 40
0
 40
1
 40
1
 40
1
 40
1
 10
12.414042
 20
7.531103
 30
0.0
 10
12.413119
 20
7.965030
 30
0.0
 10
12.800607
 20
8.734953
 30
0.0
 10
13.302421
 20
9.296274
 30
0.0
  0
SPLINE
  5
11d
100
AcDbEntity
  8
Image
 62
7
100
AcDbSpline
 70
8
 71
3
 72
8
 73
4
 74
0
 40
0
 40
0
 40
0
 40
0
 40
1
 40
1
 40
1
 40
1
 10
13.302421
 20
9.296274
 30
0.0
 10
13.384447
 20
9.388027
 30
0.0
 10
13.447255
 20
9.466795
 30
0.0
 10
13.441995
 20
9.471313
 30
0.0
  0
SPLINE
  5
11e
100
AcDbEntity
  8
Image
 62
7
100
AcDbSpline
 70
8
 71
3
 72
8
 73
4
 74
0
 40
0
 40
0
 40
0
 40
0
 40
1
 40
1
 40
1
 40
1
 10
13.441995
 20
9.471313
 30
0.0
 10
13.429992
 20
9.481623
 30
0.0
 10
12.906595
 20
9.290416
 30
0.0
 10
12.453471
 20
9.110186
 30
0.0
  0
SPLINE
  5
11f
100
AcDbEntity
  8
Image
 62
7
100
AcDbSpline
 70
8
 71
3
 72
8
 73
4
 74
0
 40
0
 40
0
 40
0
 40
0
 40
1
 40
1
 40
1
 40
1
 10
12.453471
 20
9.110186
 30
0.0
 10
12.264294
 20
9.034941
 30
0.0
 10
11.933622
 20
8.885531
 30
0.0
 10
11.718645
 20
8.778164
 30
0.0
  0
LWPOLYLINE
  5
120
100
AcDbEntity
  8
Image
 62
7
100
AcDbPolyline
 90
3
 70
0
 10
19.139282
 20
8.700916
 30
0.0
 10
19.250249
 20
8.864866
 30
0.0
 10
19.026860
 20
8.663391
 30
0.0
  0
SPLINE
  5
121
100
AcDbEntity
  8
Image
 62
7
100
AcDbSpline
 70
8
 71
3
 72
8
 73
4
 74
0
 40
0
 40
0
 40
0
 40
0
 40
1
 40
1
 40
1
 40
1
 10
11.451365
 20
8.446096
 30
0.0
 10
11.586123
 20
8.296871
 30
0.0
 10
11.698743
 20
8.083707
 30
0.0
 10
11.699150
 20
7.977093
 30
0.0
  0
SPLINE
  5
122
100
AcDbEntity
  8
Image
 62
7
100
AcDbSpline
 70
8
 71
3
 72
8
 73
4
 74
0
 40
0
 40
0
 40
0
 40
0
 40
1
 40
1
 40
1
 40
1
 10
11.699150
 20
7.977093
 30
0.0
 10
11.699926
 20
7.774402
 30
0.0
 10
11.377104
 20
7.400134
 30
0.0
 10
11.016942
 20
7.186166
 30
0.0
  0
SPLINE
  5
123
100
AcDbEntity
  8
Image
 62
7
100
AcDbSpline
 70
8
 71
3
 72
8
 73
4
 74
0
 40
0
 40
0
 40
0
 40
0
 40
1
 40
1
 40
1
 40
1
 10
11.016942
 20
7.186166
 30
0.0
 10
10.607924
 20
6.943173
 30
0.0
 10
10.094900
 20
6.761171
 30
0.0
 10
9.662752
 20
6.705751
 30
0.0
  0
SPLINE
  5
124
100
AcDbEntity
  8
Image
 62
7
100
AcDbSpline
 70
8
 71
3
 72
8
 73
4
 74
0
 40
0
 40
0
 40
0
 40
0
 40
1
 40
1
 40
1
 40
1
 10
9.662752
 20
6.705751
 30
0.0
 10
9.450204
 20
6.678493
 30
0.0
 10
9.418888
 20
6.680312
 30
0.0
 10
9.328597
 20
6.725166
 30
0.0
  0
SPLINE
  5
125
100
AcDbEntity
  8
Image
 62
7
100
AcDbSpline
 70
8
 71
3
 72
8
 73
4
 74
0
 40
0
 40
0
 40
0
 40
0
 40
1
 40
1
 40
1
 40
1
 10
9.328597
 20
6.725166
 30
0.0
 10
9.213548
 20
6.782319
 30
0.0
 10
9.145058
 20
6.866854
 30
0.0
 10
9.094328
 20
7.014313
 30
0.0
  0
SPLINE
  5
126
100
AcDbEntity
  8
Image
 62
7
100
AcDbSpline
 70
8
 71
3
 72
8
 73
4
 74
0
 40
0
 40
0
 40
0
 40
0
 40
1
 40
1
 40
1
 40
1
 10
9.094328
 20
7.014313
 30
0.0
 10
9.063867
 20
7.102855
 30
0.0
 10
9.064095
 20
7.132148
 30
0.0
 10
9.095836
 20
7.208166
 30
0.0
  0
SPLINE
  5
127
100
AcDbEntity
  8
Image
 62
7
100
AcDbSpline
 70
8
 71
3
 72
8
 73
4
 74
0
 40
0
 40
0
 40
0
 40
0
 40
1
 40
1
 40
1
 40
1
 10
9.095836
 20
7.208166
 30
0.0
 10
9.217482
 20
7.499510
 30
0.0
 10
10.007038
 20
8.097333
 30
0.0
 10
10.782578
 20
8.485306
 30
0.0
  0
SPLINE
  5
128
100
AcDbEntity
  8
Image
 62
7
100
AcDbSpline
 70
8
 71
3
 72
8
 73
4
 74
0
 40
0
 40
0
 40
0
 40
0
 40
1
 40
1
 40
1
 40
1
 10
10.782578
 20
8.485306
 30
0.0
 10
10.901205
 20
8.544650
 30
0.0
 10
11.002276
 20
8.596825
 30
0.0
 10
11.007179
 20
8.601249
 30
0.0
  0
SPLINE
  5
129
100
AcDbEntity
  8
Image
 62
7
100
AcDbSpline
 70
8
 71
3
 72
8
 73
4
 74
0
 40
0
 40
0
 40
0
 40
0
 40
1
 40
1
 40
1
 40
1
 10
11.007179
 20
8.601249
 30
0.0
 10
11.016496
 20
8.609656
 30
0.0
 10
10.621770
 20
8.992189
 30
0.0
 10
10.591761
 20
9.003835
 30
0.0
  0
SPLINE
  5
12a
100
AcDbEntity
  8
Image
 62
7
100
AcDbSpline
 70
8
 71
3
 72
8
 73
4
 74
0
 40
0
 40
0
 40
0
 40
0
 40
1
 40
1
 40
1
 40
1
 10
10.591761
 20
9.003835
 30
0.0
 10
10.582298
 20
9.007508
 30
0.0
 10
10.449625
 20
8.907445
 30
0.0
 10
10.296931
 20
8.781474
 30
0.0
  0
SPLINE
  5
12b
100
AcDbEntity
  8
Image
 62
7
100
AcDbSpline
 70
8
 71
3
 72
8
 73
4
 74
0
 40
0
 40
0
 40
0
 40
0
 40
1
 40
1
 40
1
 40
1
 10
10.296931
 20
8.781474
 30
0.0
 10
9.372735
 20
8.019020
 30
0.0
 10
8.211323
 20
7.180237
 30
0.0
 10
7.241181
 20
6.574580
 30
0.0
  0
SPLINE
  5
12c
100
AcDbEntity
  8
Image
 62
7
100
AcDbSpline
 70
8
 71
3
 72
8
 73
4
 74
0
 40
0
 40
0
 40
0
 40
0
 40
1
 40
1
 40
1
 40
1
 10
7.241181
 20
6.574580
 30
0.0
 10
5.591230
 20
5.544522
 30
0.0
 10
4.151396
 20
4.926037
 30
0.0
 10
3.055572
 20
4.776641
 30
0.0
  0
SPLINE
  5
12d
100
AcDbEntity
  8
Image
 62
7
100
AcDbSpline
 70
8
 71
3
 72
8
 73
4
 74
0
 40
0
 40
0
 40
0
 40
0
 40
1
 40
1
 40
1
 40
1
 10
3.055572
 20
4.776641
 30
0.0
 10
2.757116
 20
4.735952
 30
0.0
 10
2.195234
 20
4.755439
 30
0.0
 10
1.982873
 20
4.813845
 30
0.0
  0
SPLINE
  5
12e
100
AcDbEntity
  8
Image
 62
7
100
AcDbSpline
 70
8
 71
3
 72
8
 73
4
 74
0
 40
0
 40
0
 40
0
 40
0
 40
1
 40
1
 40
1
 40
1
 10
1.982873
 20
4.813845
 30
0.0
 10
1.553721
 20
4.931874
 30
0.0
 10
1.190254
 20
5.214900
 30
0.0
 10
1.016599
 20
5.566267
 30
0.0
  0
SPLINE
  5
12f
100
AcDbEntity
  8
Image
 62
7
100
AcDbSpline
 70
8
 71
3
 72
8
 73
4
 74
0
 40
0
 40
0
 40
0
 40
0
 40
1
 40
1
 40
1
 40
1
 10
1.016599
 20
5.566267
 30
0.0
 10
0.917999
 20
5.765769
 30
0.0
 10
0.917642
 20
5.767704
 30
0.0
 10
0.918356
 20
6.098598
 30
0.0
  0
SPLINE
  5
130
100
AcDbEntity
  8
Image
 62
7
100
AcDbSpline
 70
8
 71
3
 72
8
 73
4
 74
0
 40
0
 40
0
 40
0
 40
0
 40
1
 40
1
 40
1
 40
1
 10
0.918356
 20
6.098598
 30
0.0
 10
0.919018
 20
6.405529
 30
0.0
 10
0.925811
 20
6.450321
 30
0.0
 10
1.007988
 20
6.689577
 30
0.0
  0
SPLINE
  5
131
100
AcDbEntity
  8
Image
 62
7
100
AcDbSpline
 70
8
 71
3
 72
8
 73
4
 74
0
 40
0
 40
0
 40
0
 40
0
 40
1
 40
1
 40
1
 40
1
 10
1.007988
 20
6.689577
 30
0.0
 10
1.408702
 20
7.856255
 30
0.0
 10
2.927823
 20
9.163569
 30
0.0
 10
4.857462
 20
10.002332
 30
0.0
  0
SPLINE
  5
132
100
AcDbEntity
  8
Image
 62
7
100
AcDbSpline
 70
8
 71
3
 72
8
 73
4
 74
0
 40
0
 40
0
 40
0
 40
0
 40
1
 40
1
 40
1
 40
1
 10
4.857462
 20
10.002332
 30
0.0
 10
5.386842
 20
10.232438
 30
0.0
 10
5.969602
 20
10.418416
 30
0.0
 10
6.353028
 20
10.479616
 30
0.0
  0
LWPOLYLINE
  5
133
100
AcDbEntity
  8
Image
 62
7
100
AcDbPolyline
 90
3
 70
0
 10
11.718645
 20
8.778164
 30
0.0
 10
11.327778
 20
8.582950
 30
0.0
 10
11.451365
 20
8.446096
 30
0.0
  0
SPLINE
  5
134
100
AcDbEntity
  8
Image
 62
7
100
AcDbSpline
 70
8
 71
3
 72
8
 73
4
 74
0
 40
0
 40
0
 40
0
 40
0
 40
1
 40
1
 40
1
 40
1
 10
6.222945
 20
10.560858
 30
0.0
 10
5.781274
 20
10.672505
 30
0.0
 10
5.274981
 20
10.964331
 30
0.0
 10
5.064148
 20
11.228787
 30
0.0
  0
SPLINE
  5
135
100
AcDbEntity
  8
Image
 62
7
100
AcDbSpline
 70
8
 71
3
 72
8
 73
4
 74
0
 40
0
 40
0
 40
0
 40
0
 40
1
 40
1
 40
1
 40
1
 10
5.064148
 20
11.228787
 30
0.0
 10
4.867094
 20
11.475958
 30
0.0
 10
4.777897
 20
11.759448
 30
0.0
 10
4.808950
 20
12.039866
 30
0.0
  0
SPLINE
  5
136
100
AcDbEntity
  8
Image
 62
7
100
AcDbSpline
 70
8
 71
3
 72
8
 73
4
 74
0
 40
0
 40
0
 40
0
 40
0
 40
1
 40
1
 40
1
 40
1
 10
4.808950
 20
12.039866
 30
0.0
 10
4.921455
 20
13.055826
 30
0.0
 10
5.985923
 20
14.171951
 30
0.0
 10
7.585138
 20
14.950778
 30
0.0
  0
SPLINE
  5
137
100
AcDbEntity
  8
Image
 62
7
100
AcDbSpline
 70
8
 71
3
 72
8
 73
4
 74
0
 40
0
 40
0
 40
0
 40
0
 40
1
 40
1
 40
1
 40
1
 10
7.585138
 20
14.950778
 30
0.0
 10
8.868571
 20
15.575817
 30
0.0
 10
10.204850
 20
15.804948
 30
0.0
 10
11.037950
 20
15.542830
 30
0.0
  0
SPLINE
  5
138
100
AcDbEntity
  8
Image
 62
7
100
AcDbSpline
 70
8
 71
3
 72
8
 73
4
 74
0
 40
0
 40
0
 40
0
 40
0
 40
1
 40
1
 40
1
 40
1
 10
11.037950
 20
15.542830
 30
0.0
 10
11.354203
 20
15.443328
 30
0.0
 10
11.592521
 20
15.252152
 30
0.0
 10
11.697718
 20
15.013574
 30
0.0
  0
SPLINE
  5
139
100
AcDbEntity
  8
Image
 62
7
100
AcDbSpline
 70
8
 71
3
 72
8
 73
4
 74
0
 40
0
 40
0
 40
0
 40
0
 40
1
 40
1
 40
1
 40
1
 10
11.697718
 20
15.013574
 30
0.0
 10
11.812090
 20
14.754188
 30
0.0
 10
11.817545
 20
14.337838
 30
0.0
 10
11.710706
 20
14.022156
 30
0.0
  0
SPLINE
  5
13a
100
AcDbEntity
  8
Image
 62
7
100
AcDbSpline
 70
8
 71
3
 72
8
 73
4
 74
0
 40
0
 40
0
 40
0
 40
0
 40
1
 40
1
 40
1
 40
1
 10
11.710706
 20
14.022156
 30
0.0
 10
11.403911
 20
13.115649
 30
0.0
 10
10.334904
 20
12.178399
 30
0.0
 10
9.317758
 20
11.924142
 30
0.0
  0
SPLINE
  5
13b
100
AcDbEntity
  8
Image
 62
7
100
AcDbSpline
 70
8
 71
3
 72
8
 73
4
 74
0
 40
0
 40
0
 40
0
 40
0
 40
1
 40
1
 40
1
 40
1
 10
9.317758
 20
11.924142
 30
0.0
 10
8.996913
 20
11.843939
 30
0.0
 10
8.775202
 20
11.842511
 30
0.0
 10
8.637753
 20
11.919761
 30
0.0
  0
SPLINE
  5
13c
100
AcDbEntity
  8
Image
 62
7
100
AcDbSpline
 70
8
 71
3
 72
8
 73
4
 74
0
 40
0
 40
0
 40
0
 40
0
 40
1
 40
1
 40
1
 40
1
 10
8.637753
 20
11.919761
 30
0.0
 10
8.496941
 20
11.998903
 30
0.0
 10
8.414097
 20
12.113329
 30
0.0
 10
8.399504
 20
12.248841
 30
0.0
  0
SPLINE
  5
13d
100
AcDbEntity
  8
Image
 62
7
100
AcDbSpline
 70
8
 71
3
 72
8
 73
4
 74
0
 40
0
 40
0
 40
0
 40
0
 40
1
 40
1
 40
1
 40
1
 10
8.399504
 20
12.248841
 30
0.0
 10
8.389921
 20
12.337824
 30
0.0
 10
8.402695
 20
12.379619
 30
0.0
 10
8.470444
 20
12.480943
 30
0.0
  0
SPLINE
  5
13e
100
AcDbEntity
  8
Image
 62
7
100
AcDbSpline
 70
8
 71
3
 72
8
 73
4
 74
0
 40
0
 40
0
 40
0
 40
0
 40
1
 40
1
 40
1
 40
1
 10
8.470444
 20
12.480943
 30
0.0
 10
8.554164
 20
12.606154
 30
0.0
 10
8.820516
 20
12.838163
 30
0.0
 10
9.013888
 20
12.954317
 30
0.0
  0
LWPOLYLINE
  5
13f
100
AcDbEntity
  8
Image
 62
7
100
AcDbPolyline
 90
3
 70
0
 10
6.353028
 20
10.479616
 30
0.0
 10
6.470292
 20
10.498333
 30
0.0
 10
6.222945
 20
10.560858
 30
0.0
  0
SPLINE
  5
140
100
AcDbEntity
  8
Image
 62
7
100
AcDbSpline
 70
8
 71
3
 72
8
 73
4
 74
0
 40
0
 40
0
 40
0
 40
0
 40
1
 40
1
 40
1
 40
1
 10
9.023926
 20
12.886065
 30
0.0
 10
8.920585
 20
12.743858
 30
0.0
 10
8.841909
 20
12.601672
 30
0.0
 10
8.841909
 20
12.557118
 30
0.0
  0
SPLINE
  5
141
100
AcDbEntity
  8
Image
 62
7
100
AcDbSpline
 70
8
 71
3
 72
8
 73
4
 74
0
 40
0
 40
0
 40
0
 40
0
 40
1
 40
1
 40
1
 40
1
 10
8.841909
 20
12.557118
 30
0.0
 10
8.841909
 20
12.444673
 30
0.0
 10
9.538212
 20
12.734661
 30
0.0
 10
10.094574
 20
13.078813
 30
0.0
  0
SPLINE
  5
142
100
AcDbEntity
  8
Image
 62
7
100
AcDbSpline
 70
8
 71
3
 72
8
 73
4
 74
0
 40
0
 40
0
 40
0
 40
0
 40
1
 40
1
 40
1
 40
1
 10
10.094574
 20
13.078813
 30
0.0
 10
10.938307
 20
13.600725
 30
0.0
 10
11.485635
 20
14.199905
 30
0.0
 10
11.532382
 20
14.652833
 30
0.0
  0
SPLINE
  5
143
100
AcDbEntity
  8
Image
 62
7
100
AcDbSpline
 70
8
 71
3
 72
8
 73
4
 74
0
 40
0
 40
0
 40
0
 40
0
 40
1
 40
1
 40
1
 40
1
 10
11.532382
 20
14.652833
 30
0.0
 10
11.553929
 20
14.861611
 30
0.0
 10
11.454961
 20
15.067403
 30
0.0
 10
11.279455
 20
15.178762
 30
0.0
  0
SPLINE
  5
144
100
AcDbEntity
  8
Image
 62
7
100
AcDbSpline
 70
8
 71
3
 72
8
 73
4
 74
0
 40
0
 40
0
 40
0
 40
0
 40
1
 40
1
 40
1
 40
1
 10
11.279455
 20
15.178762
 30
0.0
 10
10.985911
 20
15.365017
 30
0.0
 10
10.443349
 20
15.434715
 30
0.0
 10
9.953305
 20
15.349120
 30
0.0
  0
SPLINE
  5
145
100
AcDbEntity
  8
Image
 62
7
100
AcDbSpline
 70
8
 71
3
 72
8
 73
4
 74
0
 40
0
 40
0
 40
0
 40
0
 40
1
 40
1
 40
1
 40
1
 10
9.953305
 20
15.349120
 30
0.0
 10
8.648644
 20
15.121239
 30
0.0
 10
6.736808
 20
13.849797
 30
0.0
 10
5.982868
 20
12.708633
 30
0.0
  0
SPLINE
  5
146
100
AcDbEntity
  8
Image
 62
7
100
AcDbSpline
 70
8
 71
3
 72
8
 73
4
 74
0
 40
0
 40
0
 40
0
 40
0
 40
1
 40
1
 40
1
 40
1
 10
5.982868
 20
12.708633
 30
0.0
 10
5.800451
 20
12.432527
 30
0.0
 10
5.734521
 20
12.253500
 30
0.0
 10
5.736582
 20
12.039866
 30
0.0
  0
SPLINE
  5
147
100
AcDbEntity
  8
Image
 62
7
100
AcDbSpline
 70
8
 71
3
 72
8
 73
4
 74
0
 40
0
 40
0
 40
0
 40
0
 40
1
 40
1
 40
1
 40
1
 10
5.736582
 20
12.039866
 30
0.0
 10
5.742412
 20
11.435698
 30
0.0
 10
6.485444
 20
11.025976
 30
0.0
 10
7.710815
 20
10.951238
 30
0.0
  0
SPLINE
  5
148
100
AcDbEntity
  8
Image
 62
7
100
AcDbSpline
 70
8
 71
3
 72
8
 73
4
 74
0
 40
0
 40
0
 40
0
 40
0
 40
1
 40
1
 40
1
 40
1
 10
7.710815
 20
10.951238
 30
0.0
 10
7.898058
 20
10.939818
 30
0.0
 10
7.995242
 20
10.923458
 30
0.0
 10
7.995242
 20
10.903360
 30
0.0
  0
SPLINE
  5
149
100
AcDbEntity
  8
Image
 62
7
100
AcDbSpline
 70
8
 71
3
 72
8
 73
4
 74
0
 40
0
 40
0
 40
0
 40
0
 40
1
 40
1
 40
1
 40
1
 10
7.995242
 20
10.903360
 30
0.0
 10
7.995242
 20
10.848733
 30
0.0
 10
7.848180
 20
10.639686
 30
0.0
 10
7.748042
 20
10.551968
 30
0.0
  0
SPLINE
  5
14a
100
AcDbEntity
  8
Image
 62
7
100
AcDbSpline
 70
8
 71
3
 72
8
 73
4
 74
0
 40
0
 40
0
 40
0
 40
0
 40
1
 40
1
 40
1
 40
1
 10
7.748042
 20
10.551968
 30
0.0
 10
7.638169
 20
10.455723
 30
0.0
 10
7.633215
 20
10.454320
 30
0.0
 10
7.267638
 20
10.415987
 30
0.0
  0
SPLINE
  5
14b
100
AcDbEntity
  8
Image
 62
7
100
AcDbSpline
 70
8
 71
3
 72
8
 73
4
 74
0
 40
0
 40
0
 40
0
 40
0
 40
1
 40
1
 40
1
 40
1
 10
7.267638
 20
10.415987
 30
0.0
 10
6.742850
 20
10.360959
 30
0.0
 10
6.174823
 20
10.169923
 30
0.0
 10
5.494930
 20
9.819800
 30
0.0
  0
SPLINE
  5
14c
100
AcDbEntity
  8
Image
 62
7
100
AcDbSpline
 70
8
 71
3
 72
8
 73
4
 74
0
 40
0
 40
0
 40
0
 40
0
 40
1
 40
1
 40
1
 40
1
 10
5.494930
 20
9.819800
 30
0.0
 10
3.851263
 20
8.973363
 30
0.0
 10
2.265819
 20
7.518791
 30
0.0
 10
1.964092
 20
6.580418
 30
0.0
  0
SPLINE
  5
14d
100
AcDbEntity
  8
Image
 62
7
100
AcDbSpline
 70
8
 71
3
 72
8
 73
4
 74
0
 40
0
 40
0
 40
0
 40
0
 40
1
 40
1
 40
1
 40
1
 10
1.964092
 20
6.580418
 30
0.0
 10
1.879012
 20
6.315817
 30
0.0
 10
1.892199
 20
6.023664
 30
0.0
 10
1.996326
 20
5.866322
 30
0.0
  0
SPLINE
  5
14e
100
AcDbEntity
  8
Image
 62
7
100
AcDbSpline
 70
8
 71
3
 72
8
 73
4
 74
0
 40
0
 40
0
 40
0
 40
0
 40
1
 40
1
 40
1
 40
1
 10
1.996326
 20
5.866322
 30
0.0
 10
2.096224
 20
5.715369
 30
0.0
 10
2.254428
 20
5.607006
 30
0.0
 10
2.477091
 20
5.537017
 30
0.0
  0
SPLINE
  5
14f
100
AcDbEntity
  8
Image
 62
7
100
AcDbSpline
 70
8
 71
3
 72
8
 73
4
 74
0
 40
0
 40
0
 40
0
 40
0
 40
1
 40
1
 40
1
 40
1
 10
2.477091
 20
5.537017
 30
0.0
 10
2.736845
 20
5.455370
 30
0.0
 10
3.253655
 20
5.456498
 30
0.0
 10
3.673976
 20
5.539631
 30
0.0
  0
SPLINE
  5
150
100
AcDbEntity
  8
Image
 62
7
100
AcDbSpline
 70
8
 71
3
 72
8
 73
4
 74
0
 40
0
 40
0
 40
0
 40
0
 40
1
 40
1
 40
1
 40
1
 10
3.673976
 20
5.539631
 30
0.0
 10
4.961276
 20
5.794236
 30
0.0
 10
6.797992
 20
6.676012
 30
0.0
 10
8.923154
 20
8.059672
 30
0.0
  0
SPLINE
  5
151
100
AcDbEntity
  8
Image
 62
7
100
AcDbSpline
 70
8
 71
3
 72
8
 73
4
 74
0
 40
0
 40
0
 40
0
 40
0
 40
1
 40
1
 40
1
 40
1
 10
8.923154
 20
8.059672
 30
0.0
 10
9.327610
 20
8.323007
 30
0.0
 10
10.411515
 20
9.068826
 30
0.0
 10
10.476181
 20
9.128286
 30
0.0
  0
SPLINE
  5
152
100
AcDbEntity
  8
Image
 62
7
100
AcDbSpline
 70
8
 71
3
 72
8
 73
4
 74
0
 40
0
 40
0
 40
0
 40
0
 40
1
 40
1
 40
1
 40
1
 10
10.476181
 20
9.128286
 30
0.0
 10
10.480078
 20
9.131869
 30
0.0
 10
10.459503
 20
9.187175
 30
0.0
 10
10.430460
 20
9.251188
 30
0.0
  0
SPLINE
  5
153
100
AcDbEntity
  8
Image
 62
7
100
AcDbSpline
 70
8
 71
3
 72
8
 73
4
 74
0
 40
0
 40
0
 40
0
 40
0
 40
1
 40
1
 40
1
 40
1
 10
10.430460
 20
9.251188
 30
0.0
 10
10.253053
 20
9.642206
 30
0.0
 10
10.529310
 20
10.121279
 30
0.0
 10
11.183471
 20
10.557027
 30
0.0
  0
SPLINE
  5
154
100
AcDbEntity
  8
Image
 62
7
100
AcDbSpline
 70
8
 71
3
 72
8
 73
4
 74
0
 40
0
 40
0
 40
0
 40
0
 40
1
 40
1
 40
1
 40
1
 10
11.183471
 20
10.557027
 30
0.0
 10
11.691217
 20
10.895245
 30
0.0
 10
12.275202
 20
11.119772
 30
0.0
 10
12.800322
 20
11.178661
 30
0.0
  0
SPLINE
  5
155
100
AcDbEntity
  8
Image
 62
7
100
AcDbSpline
 70
8
 71
3
 72
8
 73
4
 74
0
 40
0
 40
0
 40
0
 40
0
 40
1
 40
1
 40
1
 40
1
 10
12.800322
 20
11.178661
 30
0.0
 10
13.040359
 20
11.205580
 30
0.0
 10
13.136744
 20
11.178529
 30
0.0
 10
13.231953
 20
11.057501
 30
0.0
  0
SPLINE
  5
156
100
AcDbEntity
  8
Image
 62
7
100
AcDbSpline
 70
8
 71
3
 72
8
 73
4
 74
0
 40
0
 40
0
 40
0
 40
0
 40
1
 40
1
 40
1
 40
1
 10
13.231953
 20
11.057501
 30
0.0
 10
13.328358
 20
10.934956
 30
0.0
 10
13.369816
 20
10.809613
 30
0.0
 10
13.385376
 20
10.593637
 30
0.0
  0
SPLINE
  5
157
100
AcDbEntity
  8
Image
 62
7
100
AcDbSpline
 70
8
 71
3
 72
8
 73
4
 74
0
 40
0
 40
0
 40
0
 40
0
 40
1
 40
1
 40
1
 40
1
 10
13.385376
 20
10.593637
 30
0.0
 10
13.403242
 20
10.345663
 30
0.0
 10
13.372311
 20
10.285038
 30
0.0
 10
13.098674
 20
10.031691
 30
0.0
  0
SPLINE
  5
158
100
AcDbEntity
  8
Image
 62
7
100
AcDbSpline
 70
8
 71
3
 72
8
 73
4
 74
0
 40
0
 40
0
 40
0
 40
0
 40
1
 40
1
 40
1
 40
1
 10
13.098674
 20
10.031691
 30
0.0
 10
12.820057
 20
9.773735
 30
0.0
 10
12.480371
 20
9.569982
 30
0.0
 10
12.423593
 20
9.626760
 30
0.0
  0
SPLINE
  5
159
100
AcDbEntity
  8
Image
 62
7
100
AcDbSpline
 70
8
 71
3
 72
8
 73
4
 74
0
 40
0
 40
0
 40
0
 40
0
 40
1
 40
1
 40
1
 40
1
 10
12.423593
 20
9.626760
 30
0.0
 10
12.413704
 20
9.636648
 30
0.0
 10
12.505902
 20
9.749065
 30
0.0
 10
12.628476
 20
9.876574
 30
0.0
  0
SPLINE
  5
15a
100
AcDbEntity
  8
Image
 62
7
100
AcDbSpline
 70
8
 71
3
 72
8
 73
4
 74
0
 40
0
 40
0
 40
0
 40
0
 40
1
 40
1
 40
1
 40
1
 10
12.628476
 20
9.876574
 30
0.0
 10
12.953623
 20
10.214812
 30
0.0
 10
13.215227
 20
10.572556
 30
0.0
 10
13.170285
 20
10.617498
 30
0.0
  0
SPLINE
  5
15b
100
AcDbEntity
  8
Image
 62
7
100
AcDbSpline
 70
8
 71
3
 72
8
 73
4
 74
0
 40
0
 40
0
 40
0
 40
0
 40
1
 40
1
 40
1
 40
1
 10
13.170285
 20
10.617498
 30
0.0
 10
13.162204
 20
10.625579
 30
0.0
 10
13.078423
 20
10.613148
 30
0.0
 10
12.984104
 20
10.589872
 30
0.0
  0
SPLINE
  5
15c
100
AcDbEntity
  8
Image
 62
7
100
AcDbSpline
 70
8
 71
3
 72
8
 73
4
 74
0
 40
0
 40
0
 40
0
 40
0
 40
1
 40
1
 40
1
 40
1
 10
12.984104
 20
10.589872
 30
0.0
 10
12.209101
 20
10.398620
 30
0.0
 10
10.905659
 20
9.461751
 30
0.0
 10
10.905659
 20
9.095957
 30
0.0
  0
SPLINE
  5
15d
100
AcDbEntity
  8
Image
 62
7
100
AcDbSpline
 70
8
 71
3
 72
8
 73
4
 74
0
 40
0
 40
0
 40
0
 40
0
 40
1
 40
1
 40
1
 40
1
 10
10.905659
 20
9.095957
 30
0.0
 10
10.905659
 20
9.034061
 30
0.0
 10
10.995769
 20
8.912483
 30
0.0
 10
11.125897
 20
8.798809
 30
0.0
  0
LWPOLYLINE
  5
15e
100
AcDbEntity
  8
Image
 62
7
100
AcDbPolyline
 90
3
 70
0
 10
9.013888
 20
12.954317
 30
0.0
 10
9.119721
 20
13.017889
 30
0.0
 10
9.023926
 20
12.886065
 30
0.0
  0
SPLINE
  5
15f
100
AcDbEntity
  8
Image
 62
7
100
AcDbSpline
 70
8
 71
3
 72
8
 73
4
 74
0
 40
0
 40
0
 40
0
 40
0
 40
1
 40
1
 40
1
 40
1
 10
11.615376
 20
8.910947
 30
0.0
 10
12.231250
 20
9.228985
 30
0.0
 10
12.901743
 20
9.503903
 30
0.0
 10
13.511805
 20
9.688527
 30
0.0
  0
SPLINE
  5
160
100
AcDbEntity
  8
Image
 62
7
100
AcDbSpline
 70
8
 71
3
 72
8
 73
4
 74
0
 40
0
 40
0
 40
0
 40
0
 40
1
 40
1
 40
1
 40
1
 10
13.511805
 20
9.688527
 30
0.0
 10
13.715072
 20
9.750042
 30
0.0
 10
13.775105
 20
9.782490
 30
0.0
 10
13.921909
 20
9.910190
 30
0.0
  0
SPLINE
  5
161
100
AcDbEntity
  8
Image
 62
7
100
AcDbSpline
 70
8
 71
3
 72
8
 73
4
 74
0
 40
0
 40
0
 40
0
 40
0
 40
1
 40
1
 40
1
 40
1
 10
13.921909
 20
9.910190
 30
0.0
 10
14.302453
 20
10.241212
 30
0.0
 10
14.647969
 20
10.473439
 30
0.0
 10
15.075742
 20
10.685703
 30
0.0
  0
SPLINE
  5
162
100
AcDbEntity
  8
Image
 62
7
100
AcDbSpline
 70
8
 71
3
 72
8
 73
4
 74
0
 40
0
 40
0
 40
0
 40
0
 40
1
 40
1
 40
1
 40
1
 10
15.075742
 20
10.685703
 30
0.0
 10
15.522479
 20
10.907376
 30
0.0
 10
15.889975
 20
11.016672
 30
0.0
 10
16.218243
 20
11.025490
 30
0.0
  0
SPLINE
  5
163
100
AcDbEntity
  8
Image
 62
7
100
AcDbSpline
 70
8
 71
3
 72
8
 73
4
 74
0
 40
0
 40
0
 40
0
 40
0
 40
1
 40
1
 40
1
 40
1
 10
16.218243
 20
11.025490
 30
0.0
 10
16.373678
 20
11.029665
 30
0.0
 10
16.419915
 20
11.019848
 30
0.0
 10
16.519401
 20
10.961545
 30
0.0
  0
SPLINE
  5
164
100
AcDbEntity
  8
Image
 62
7
100
AcDbSpline
 70
8
 71
3
 72
8
 73
4
 74
0
 40
0
 40
0
 40
0
 40
0
 40
1
 40
1
 40
1
 40
1
 10
16.519401
 20
10.961545
 30
0.0
 10
16.651307
 20
10.884243
 30
0.0
 10
16.847936
 20
10.682781
 30
0.0
 10
16.883963
 20
10.588022
 30
0.0
  0
SPLINE
  5
165
100
AcDbEntity
  8
Image
 62
7
100
AcDbSpline
 70
8
 71
3
 72
8
 73
4
 74
0
 40
0
 40
0
 40
0
 40
0
 40
1
 40
1
 40
1
 40
1
 10
16.883963
 20
10.588022
 30
0.0
 10
16.915012
 20
10.506358
 30
0.0
 10
16.873620
 20
10.324143
 30
0.0
 10
16.792509
 20
10.185421
 30
0.0
  0
SPLINE
  5
166
100
AcDbEntity
  8
Image
 62
7
100
AcDbSpline
 70
8
 71
3
 72
8
 73
4
 74
0
 40
0
 40
0
 40
0
 40
0
 40
1
 40
1
 40
1
 40
1
 10
16.792509
 20
10.185421
 30
0.0
 10
16.665427
 20
9.968078
 30
0.0
 10
15.985659
 20
9.365670
 30
0.0
 10
15.985659
 20
9.470393
 30
0.0
  0
SPLINE
  5
167
100
AcDbEntity
  8
Image
 62
7
100
AcDbSpline
 70
8
 71
3
 72
8
 73
4
 74
0
 40
0
 40
0
 40
0
 40
0
 40
1
 40
1
 40
1
 40
1
 10
15.985659
 20
9.470393
 30
0.0
 10
15.985659
 20
9.476011
 30
0.0
 10
16.032489
 20
9.550736
 30
0.0
 10
16.089726
 20
9.636449
 30
0.0
  0
SPLINE
  5
168
100
AcDbEntity
  8
Image
 62
7
100
AcDbSpline
 70
8
 71
3
 72
8
 73
4
 74
0
 40
0
 40
0
 40
0
 40
0
 40
1
 40
1
 40
1
 40
1
 10
16.089726
 20
9.636449
 30
0.0
 10
16.298064
 20
9.948438
 30
0.0
 10
16.552442
 20
10.516174
 30
0.0
 10
16.505103
 20
10.563513
 30
0.0
  0
SPLINE
  5
169
100
AcDbEntity
  8
Image
 62
7
100
AcDbSpline
 70
8
 71
3
 72
8
 73
4
 74
0
 40
0
 40
0
 40
0
 40
0
 40
1
 40
1
 40
1
 40
1
 10
16.505103
 20
10.563513
 30
0.0
 10
16.472861
 20
10.595754
 30
0.0
 10
16.163261
 20
10.516438
 30
0.0
 10
15.966102
 20
10.425427
 30
0.0
  0
SPLINE
  5
16a
100
AcDbEntity
  8
Image
 62
7
100
AcDbSpline
 70
8
 71
3
 72
8
 73
4
 74
0
 40
0
 40
0
 40
0
 40
0
 40
1
 40
1
 40
1
 40
1
 10
15.966102
 20
10.425427
 30
0.0
 10
15.530776
 20
10.224476
 30
0.0
 10
15.069253
 20
9.866666
 30
0.0
 10
14.529558
 20
9.311703
 30
0.0
  0
SPLINE
  5
16b
100
AcDbEntity
  8
Image
 62
7
100
AcDbSpline
 70
8
 71
3
 72
8
 73
4
 74
0
 40
0
 40
0
 40
0
 40
0
 40
1
 40
1
 40
1
 40
1
 10
14.529558
 20
9.311703
 30
0.0
 10
13.877655
 20
8.641357
 30
0.0
 10
13.418484
 20
7.976092
 30
0.0
 10
13.311549
 20
7.547001
 30
0.0
  0
SPLINE
  5
16c
100
AcDbEntity
  8
Image
 62
7
100
AcDbSpline
 70
8
 71
3
 72
8
 73
4
 74
0
 40
0
 40
0
 40
0
 40
0
 40
1
 40
1
 40
1
 40
1
 10
13.311549
 20
7.547001
 30
0.0
 10
13.224111
 20
7.196143
 30
0.0
 10
13.518064
 20
7.144456
 30
0.0
 10
14.157331
 20
7.398284
 30
0.0
  0
SPLINE
  5
16d
100
AcDbEntity
  8
Image
 62
7
100
AcDbSpline
 70
8
 71
3
 72
8
 73
4
 74
0
 40
0
 40
0
 40
0
 40
0
 40
1
 40
1
 40
1
 40
1
 10
14.157331
 20
7.398284
 30
0.0
 10
14.850041
 20
7.673333
 30
0.0
 10
16.301596
 20
8.672378
 30
0.0
 10
16.863599
 20
9.260896
 30
0.0
  0
SPLINE
  5
16e
100
AcDbEntity
  8
Image
 62
7
100
AcDbSpline
 70
8
 71
3
 72
8
 73
4
 74
0
 40
0
 40
0
 40
0
 40
0
 40
1
 40
1
 40
1
 40
1
 10
16.863599
 20
9.260896
 30
0.0
 10
17.814947
 20
10.257128
 30
0.0
 10
19.030537
 20
10.935081
 30
0.0
 10
20.014291
 20
11.018084
 30
0.0
  0
SPLINE
  5
16f
100
AcDbEntity
  8
Image
 62
7
100
AcDbSpline
 70
8
 71
3
 72
8
 73
4
 74
0
 40
0
 40
0
 40
0
 40
0
 40
1
 40
1
 40
1
 40
1
 10
20.014291
 20
11.018084
 30
0.0
 10
20.578565
 20
11.065694
 30
0.0
 10
20.979028
 20
10.918477
 30
0.0
 10
21.121331
 20
10.611116
 30
0.0
  0
SPLINE
  5
170
100
AcDbEntity
  8
Image
 62
7
100
AcDbSpline
 70
8
 71
3
 72
8
 73
4
 74
0
 40
0
 40
0
 40
0
 40
0
 40
1
 40
1
 40
1
 40
1
 10
21.121331
 20
10.611116
 30
0.0
 10
21.194787
 20
10.452459
 30
0.0
 10
21.185716
 20
10.270853
 30
0.0
 10
21.094727
 20
10.078523
 30
0.0
  0
SPLINE
  5
171
100
AcDbEntity
  8
Image
 62
7
100
AcDbSpline
 70
8
 71
3
 72
8
 73
4
 74
0
 40
0
 40
0
 40
0
 40
0
 40
1
 40
1
 40
1
 40
1
 10
21.094727
 20
10.078523
 30
0.0
 10
21.052529
 20
9.989325
 30
0.0
 10
21.002891
 20
9.907005
 30
0.0
 10
20.984418
 20
9.895589
 30
0.0
  0
SPLINE
  5
172
100
AcDbEntity
  8
Image
 62
7
100
AcDbSpline
 70
8
 71
3
 72
8
 73
4
 74
0
 40
0
 40
0
 40
0
 40
0
 40
1
 40
1
 40
1
 40
1
 10
20.984418
 20
9.895589
 30
0.0
 10
20.959541
 20
9.880214
 30
0.0
 10
20.956254
 20
9.887963
 30
0.0
 10
20.971739
 20
9.925474
 30
0.0
  0
SPLINE
  5
173
100
AcDbEntity
  8
Image
 62
7
100
AcDbSpline
 70
8
 71
3
 72
8
 73
4
 74
0
 40
0
 40
0
 40
0
 40
0
 40
1
 40
1
 40
1
 40
1
 10
20.971739
 20
9.925474
 30
0.0
 10
21.075922
 20
10.177847
 30
0.0
 10
21.086863
 20
10.323720
 30
0.0
 10
21.013699
 20
10.484893
 30
0.0
  0
SPLINE
  5
174
100
AcDbEntity
  8
Image
 62
7
100
AcDbSpline
 70
8
 71
3
 72
8
 73
4
 74
0
 40
0
 40
0
 40
0
 40
0
 40
1
 40
1
 40
1
 40
1
 10
21.013699
 20
10.484893
 30
0.0
 10
20.923688
 20
10.683179
 30
0.0
 10
20.738504
 20
10.751735
 30
0.0
 10
20.417430
 20
10.705637
 30
0.0
  0
SPLINE
  5
175
100
AcDbEntity
  8
Image
 62
7
100
AcDbSpline
 70
8
 71
3
 72
8
 73
4
 74
0
 40
0
 40
0
 40
0
 40
0
 40
1
 40
1
 40
1
 40
1
 10
20.417430
 20
10.705637
 30
0.0
 10
19.629907
 20
10.592567
 30
0.0
 10
18.556991
 20
9.877693
 30
0.0
 10
17.734137
 20
8.917783
 30
0.0
  0
SPLINE
  5
176
100
AcDbEntity
  8
Image
 62
7
100
AcDbSpline
 70
8
 71
3
 72
8
 73
4
 74
0
 40
0
 40
0
 40
0
 40
0
 40
1
 40
1
 40
1
 40
1
 10
17.734137
 20
8.917783
 30
0.0
 10
17.274444
 20
8.381523
 30
0.0
 10
16.851903
 20
7.753880
 30
0.0
 10
16.767823
 20
7.482419
 30
0.0
  0
SPLINE
  5
177
100
AcDbEntity
  8
Image
 62
7
100
AcDbSpline
 70
8
 71
3
 72
8
 73
4
 74
0
 40
0
 40
0
 40
0
 40
0
 40
1
 40
1
 40
1
 40
1
 10
16.767823
 20
7.482419
 30
0.0
 10
16.722372
 20
7.335673
 30
0.0
 10
16.964119
 20
7.446956
 30
0.0
 10
17.569488
 20
7.851446
 30
0.0
  0
SPLINE
  5
178
100
AcDbEntity
  8
Image
 62
7
100
AcDbSpline
 70
8
 71
3
 72
8
 73
4
 74
0
 40
0
 40
0
 40
0
 40
0
 40
1
 40
1
 40
1
 40
1
 10
17.569488
 20
7.851446
 30
0.0
 10
18.373168
 20
8.388442
 30
0.0
 10
19.010294
 20
8.878548
 30
0.0
 10
19.568253
 20
9.388985
 30
0.0
  0
SPLINE
  5
179
100
AcDbEntity
  8
Image
 62
7
100
AcDbSpline
 70
8
 71
3
 72
8
 73
4
 74
0
 40
0
 40
0
 40
0
 40
0
 40
1
 40
1
 40
1
 40
1
 10
19.568253
 20
9.388985
 30
0.0
 10
20.116322
 20
9.890373
 30
0.0
 10
20.365148
 20
10.077504
 30
0.0
 10
20.454580
 20
10.055551
 30
0.0
  0
SPLINE
  5
17a
100
AcDbEntity
  8
Image
 62
7
100
AcDbSpline
 70
8
 71
3
 72
8
 73
4
 74
0
 40
0
 40
0
 40
0
 40
0
 40
1
 40
1
 40
1
 40
1
 10
20.454580
 20
10.055551
 30
0.0
 10
20.595378
 20
10.020990
 30
0.0
 10
20.879557
 20
9.666543
 30
0.0
 10
20.880202
 20
9.524686
 30
0.0
  0
SPLINE
  5
17b
100
AcDbEntity
  8
Image
 62
7
100
AcDbSpline
 70
8
 71
3
 72
8
 73
4
 74
0
 40
0
 40
0
 40
0
 40
0
 40
1
 40
1
 40
1
 40
1
 10
20.880202
 20
9.524686
 30
0.0
 10
20.880335
 20
9.494680
 30
0.0
 10
20.846089
 20
9.444726
 30
0.0
 10
20.804091
 20
9.413675
 30
0.0
  0
SPLINE
  5
17c
100
AcDbEntity
  8
Image
 62
7
100
AcDbSpline
 70
8
 71
3
 72
8
 73
4
 74
0
 40
0
 40
0
 40
0
 40
0
 40
1
 40
1
 40
1
 40
1
 10
20.804091
 20
9.413675
 30
0.0
 10
20.546003
 20
9.222863
 30
0.0
 10
19.748749
 20
8.131679
 30
0.0
 10
19.566361
 20
7.719623
 30
0.0
  0
SPLINE
  5
17d
100
AcDbEntity
  8
Image
 62
7
100
AcDbSpline
 70
8
 71
3
 72
8
 73
4
 74
0
 40
0
 40
0
 40
0
 40
0
 40
1
 40
1
 40
1
 40
1
 10
19.566361
 20
7.719623
 30
0.0
 10
19.490972
 20
7.549301
 30
0.0
 10
19.447628
 20
7.369971
 30
0.0
 10
19.481851
 20
7.369971
 30
0.0
  0
SPLINE
  5
17e
100
AcDbEntity
  8
Image
 62
7
100
AcDbSpline
 70
8
 71
3
 72
8
 73
4
 74
0
 40
0
 40
0
 40
0
 40
0
 40
1
 40
1
 40
1
 40
1
 10
19.481851
 20
7.369971
 30
0.0
 10
19.526040
 20
7.369971
 30
0.0
 10
19.778278
 20
7.506078
 30
0.0
 10
19.994096
 20
7.646377
 30
0.0
  0
SPLINE
  5
17f
100
AcDbEntity
  8
Image
 62
7
100
AcDbSpline
 70
8
 71
3
 72
8
 73
4
 74
0
 40
0
 40
0
 40
0
 40
0
 40
1
 40
1
 40
1
 40
1
 10
19.994096
 20
7.646377
 30
0.0
 10
20.612300
 20
8.048260
 30
0.0
 10
21.945083
 20
9.230007
 30
0.0
 10
22.293123
 20
9.684869
 30
0.0
  0
SPLINE
  5
180
100
AcDbEntity
  8
Image
 62
7
100
AcDbSpline
 70
8
 71
3
 72
8
 73
4
 74
0
 40
0
 40
0
 40
0
 40
0
 40
1
 40
1
 40
1
 40
1
 10
22.293123
 20
9.684869
 30
0.0
 10
22.796166
 20
10.342308
 30
0.0
 10
23.355828
 20
10.961575
 30
0.0
 10
23.501467
 20
11.021900
 30
0.0
  0
SPLINE
  5
181
100
AcDbEntity
  8
Image
 62
7
100
AcDbSpline
 70
8
 71
3
 72
8
 73
4
 74
0
 40
0
 40
0
 40
0
 40
0
 40
1
 40
1
 40
1
 40
1
 10
23.501467
 20
11.021900
 30
0.0
 10
23.620904
 20
11.071373
 30
0.0
 10
23.760146
 20
11.018942
 30
0.0
 10
23.935893
 20
10.858319
 30
0.0
  0
SPLINE
  5
182
100
AcDbEntity
  8
Image
 62
7
100
AcDbSpline
 70
8
 71
3
 72
8
 73
4
 74
0
 40
0
 40
0
 40
0
 40
0
 40
1
 40
1
 40
1
 40
1
 10
23.935893
 20
10.858319
 30
0.0
 10
24.086157
 20
10.720986
 30
0.0
 10
24.194987
 20
10.561402
 30
0.0
 10
24.223950
 20
10.435923
 30
0.0
  0
SPLINE
  5
183
100
AcDbEntity
  8
Image
 62
7
100
AcDbSpline
 70
8
 71
3
 72
8
 73
4
 74
0
 40
0
 40
0
 40
0
 40
0
 40
1
 40
1
 40
1
 40
1
 10
24.223950
 20
10.435923
 30
0.0
 10
24.239194
 20
10.369883
 30
0.0
 10
24.235013
 20
10.366693
 30
0.0
 10
24.136577
 20
10.369275
 30
0.0
  0
SPLINE
  5
184
100
AcDbEntity
  8
Image
 62
7
100
AcDbSpline
 70
8
 71
3
 72
8
 73
4
 74
0
 40
0
 40
0
 40
0
 40
0
 40
1
 40
1
 40
1
 40
1
 10
24.136577
 20
10.369275
 30
0.0
 10
24.052269
 20
10.371486
 30
0.0
 10
24.009620
 20
10.352196
 30
0.0
 10
23.905416
 20
10.264724
 30
0.0
  0
SPLINE
  5
185
100
AcDbEntity
  8
Image
 62
7
100
AcDbSpline
 70
8
 71
3
 72
8
 73
4
 74
0
 40
0
 40
0
 40
0
 40
0
 40
1
 40
1
 40
1
 40
1
 10
23.905416
 20
10.264724
 30
0.0
 10
23.741350
 20
10.127002
 30
0.0
 10
23.374572
 20
9.692978
 30
0.0
 10
23.080191
 20
9.288200
 30
0.0
  0
SPLINE
  5
186
100
AcDbEntity
  8
Image
 62
7
100
AcDbSpline
 70
8
 71
3
 72
8
 73
4
 74
0
 40
0
 40
0
 40
0
 40
0
 40
1
 40
1
 40
1
 40
1
 10
23.080191
 20
9.288200
 30
0.0
 10
22.705108
 20
8.772456
 30
0.0
 10
22.703247
 20
8.768174
 30
0.0
 10
22.958600
 20
9.008519
 30
0.0
  0
SPLINE
  5
187
100
AcDbEntity
  8
Image
 62
7
100
AcDbSpline
 70
8
 71
3
 72
8
 73
4
 74
0
 40
0
 40
0
 40
0
 40
0
 40
1
 40
1
 40
1
 40
1
 10
22.958600
 20
9.008519
 30
0.0
 10
24.252650
 20
10.226513
 30
0.0
 10
25.742984
 20
11.149776
 30
0.0
 10
26.109101
 20
10.960257
 30
0.0
  0
SPLINE
  5
188
100
AcDbEntity
  8
Image
 62
7
100
AcDbSpline
 70
8
 71
3
 72
8
 73
4
 74
0
 40
0
 40
0
 40
0
 40
0
 40
1
 40
1
 40
1
 40
1
 10
26.109101
 20
10.960257
 30
0.0
 10
26.207460
 20
10.909342
 30
0.0
 10
26.456092
 20
10.655668
 30
0.0
 10
26.534367
 20
10.526363
 30
0.0
  0
SPLINE
  5
189
100
AcDbEntity
  8
Image
 62
7
100
AcDbSpline
 70
8
 71
3
 72
8
 73
4
 74
0
 40
0
 40
0
 40
0
 40
0
 40
1
 40
1
 40
1
 40
1
 10
26.534367
 20
10.526363
 30
0.0
 10
26.614490
 20
10.394008
 30
0.0
 10
26.612662
 20
10.248685
 30
0.0
 10
26.527667
 20
9.994011
 30
0.0
  0
SPLINE
  5
18a
100
AcDbEntity
  8
Image
 62
7
100
AcDbSpline
 70
8
 71
3
 72
8
 73
4
 74
0
 40
0
 40
0
 40
0
 40
0
 40
1
 40
1
 40
1
 40
1
 10
26.527667
 20
9.994011
 30
0.0
 10
26.334288
 20
9.414568
 30
0.0
 10
25.805164
 20
8.667477
 30
0.0
 10
25.109570
 20
7.991741
 30
0.0
  0
SPLINE
  5
18b
100
AcDbEntity
  8
Image
 62
7
100
AcDbSpline
 70
8
 71
3
 72
8
 73
4
 74
0
 40
0
 40
0
 40
0
 40
0
 40
1
 40
1
 40
1
 40
1
 10
25.109570
 20
7.991741
 30
0.0
 10
24.404745
 20
7.307038
 30
0.0
 10
23.752906
 20
6.929907
 30
0.0
 10
23.182681
 20
6.876910
 30
0.0
  0
SPLINE
  5
18c
100
AcDbEntity
  8
Image
 62
7
100
AcDbSpline
 70
8
 71
3
 72
8
 73
4
 74
0
 40
0
 40
0
 40
0
 40
0
 40
1
 40
1
 40
1
 40
1
 10
23.182681
 20
6.876910
 30
0.0
 10
22.875824
 20
6.848391
 30
0.0
 10
22.537618
 20
6.962570
 30
0.0
 10
22.338168
 20
7.162020
 30
0.0
  0
SPLINE
  5
18d
100
AcDbEntity
  8
Image
 62
7
100
AcDbSpline
 70
8
 71
3
 72
8
 73
4
 74
0
 40
0
 40
0
 40
0
 40
0
 40
1
 40
1
 40
1
 40
1
 10
22.338168
 20
7.162020
 30
0.0
 10
22.221595
 20
7.278594
 30
0.0
 10
22.150509
 20
7.459988
 30
0.0
 10
22.201441
 20
7.510919
 30
0.0
  0
SPLINE
  5
18e
100
AcDbEntity
  8
Image
 62
7
100
AcDbSpline
 70
8
 71
3
 72
8
 73
4
 74
0
 40
0
 40
0
 40
0
 40
0
 40
1
 40
1
 40
1
 40
1
 10
22.201441
 20
7.510919
 30
0.0
 10
22.221648
 20
7.531126
 30
0.0
 10
22.229825
 20
7.530179
 30
0.0
 10
22.229825
 20
7.507630
 30
0.0
  0
SPLINE
  5
18f
100
AcDbEntity
  8
Image
 62
7
100
AcDbSpline
 70
8
 71
3
 72
8
 73
4
 74
0
 40
0
 40
0
 40
0
 40
0
 40
1
 40
1
 40
1
 40
1
 10
22.229825
 20
7.507630
 30
0.0
 10
22.229825
 20
7.448850
 30
0.0
 10
22.417821
 20
7.267321
 30
0.0
 10
22.510305
 20
7.236799
 30
0.0
  0
SPLINE
  5
190
100
AcDbEntity
  8
Image
 62
7
100
AcDbSpline
 70
8
 71
3
 72
8
 73
4
 74
0
 40
0
 40
0
 40
0
 40
0
 40
1
 40
1
 40
1
 40
1
 10
22.510305
 20
7.236799
 30
0.0
 10
22.711744
 20
7.170318
 30
0.0
 10
23.094165
 20
7.306706
 30
0.0
 10
23.446909
 20
7.570831
 30
0.0
  0
SPLINE
  5
191
100
AcDbEntity
  8
Image
 62
7
100
AcDbSpline
 70
8
 71
3
 72
8
 73
4
 74
0
 40
0
 40
0
 40
0
 40
0
 40
1
 40
1
 40
1
 40
1
 10
23.446909
 20
7.570831
 30
0.0
 10
23.977004
 20
7.967752
 30
0.0
 10
24.709196
 20
8.803546
 30
0.0
 10
25.252723
 20
9.632158
 30
0.0
  0
SPLINE
  5
192
100
AcDbEntity
  8
Image
 62
7
100
AcDbSpline
 70
8
 71
3
 72
8
 73
4
 74
0
 40
0
 40
0
 40
0
 40
0
 40
1
 40
1
 40
1
 40
1
 10
25.252723
 20
9.632158
 30
0.0
 10
25.462818
 20
9.952451
 30
0.0
 10
25.722325
 20
10.437258
 30
0.0
 10
25.722325
 20
10.509461
 30
0.0
  0
SPLINE
  5
193
100
AcDbEntity
  8
Image
 62
7
100
AcDbSpline
 70
8
 71
3
 72
8
 73
4
 74
0
 40
0
 40
0
 40
0
 40
0
 40
1
 40
1
 40
1
 40
1
 10
25.722325
 20
10.509461
 30
0.0
 10
25.722325
 20
10.564840
 30
0.0
 10
25.656385
 20
10.540785
 30
0.0
 10
25.298992
 20
10.355034
 30
0.0
  0
SPLINE
  5
194
100
AcDbEntity
  8
Image
 62
7
100
AcDbSpline
 70
8
 71
3
 72
8
 73
4
 74
0
 40
0
 40
0
 40
0
 40
0
 40
1
 40
1
 40
1
 40
1
 10
25.298992
 20
10.355034
 30
0.0
 10
24.472239
 20
9.925336
 30
0.0
 10
23.402243
 20
9.111572
 30
0.0
 10
22.478045
 20
8.209618
 30
0.0
  0
SPLINE
  5
195
100
AcDbEntity
  8
Image
 62
7
100
AcDbSpline
 70
8
 71
3
 72
8
 73
4
 74
0
 40
0
 40
0
 40
0
 40
0
 40
1
 40
1
 40
1
 40
1
 10
22.478045
 20
8.209618
 30
0.0
 10
22.086084
 20
7.827090
 30
0.0
 10
22.013900
 20
7.741674
 30
0.0
 10
21.720592
 20
7.313315
 30
0.0
  0
SPLINE
  5
196
100
AcDbEntity
  8
Image
 62
7
100
AcDbSpline
 70
8
 71
3
 72
8
 73
4
 74
0
 40
0
 40
0
 40
0
 40
0
 40
1
 40
1
 40
1
 40
1
 10
21.720592
 20
7.313315
 30
0.0
 10
21.353688
 20
6.777474
 30
0.0
 10
20.774859
 20
5.885201
 30
0.0
 10
20.774713
 20
5.855231
 30
0.0
  0
SPLINE
  5
197
100
AcDbEntity
  8
Image
 62
7
100
AcDbSpline
 70
8
 71
3
 72
8
 73
4
 74
0
 40
0
 40
0
 40
0
 40
0
 40
1
 40
1
 40
1
 40
1
 10
20.774713
 20
5.855231
 30
0.0
 10
20.774661
 20
5.844317
 30
0.0
 10
20.974047
 20
5.835304
 30
0.0
 10
21.217794
 20
5.835203
 30
0.0
  0
SPLINE
  5
198
100
AcDbEntity
  8
Image
 62
7
100
AcDbSpline
 70
8
 71
3
 72
8
 73
4
 74
0
 40
0
 40
0
 40
0
 40
0
 40
1
 40
1
 40
1
 40
1
 10
21.217794
 20
5.835203
 30
0.0
 10
22.198279
 20
5.834795
 30
0.0
 10
23.851247
 20
5.758209
 30
0.0
 10
25.246075
 20
5.648565
 30
0.0
  0
SPLINE
  5
199
100
AcDbEntity
  8
Image
 62
7
100
AcDbSpline
 70
8
 71
3
 72
8
 73
4
 74
0
 40
0
 40
0
 40
0
 40
0
 40
1
 40
1
 40
1
 40
1
 10
25.246075
 20
5.648565
 30
0.0
 10
30.103813
 20
5.266712
 30
0.0
 10
34.449472
 20
4.532536
 30
0.0
 10
37.600752
 20
3.561310
 30
0.0
  0
SPLINE
  5
19a
100
AcDbEntity
  8
Image
 62
7
100
AcDbSpline
 70
8
 71
3
 72
8
 73
4
 74
0
 40
0
 40
0
 40
0
 40
0
 40
1
 40
1
 40
1
 40
1
 10
37.600752
 20
3.561310
 30
0.0
 10
37.694590
 20
3.532390
 30
0.0
 10
37.774155
 20
3.511519
 30
0.0
 10
37.777566
 20
3.514930
 30
0.0
  0
SPLINE
  5
19b
100
AcDbEntity
  8
Image
 62
7
100
AcDbSpline
 70
8
 71
3
 72
8
 73
4
 74
0
 40
0
 40
0
 40
0
 40
0
 40
1
 40
1
 40
1
 40
1
 10
37.777566
 20
3.514930
 30
0.0
 10
37.780976
 20
3.518341
 30
0.0
 10
37.830540
 20
3.651909
 30
0.0
 10
37.887706
 20
3.811749
 30
0.0
  0
SPLINE
  5
19c
100
AcDbEntity
  8
Image
 62
7
100
AcDbSpline
 70
8
 71
3
 72
8
 73
4
 74
0
 40
0
 40
0
 40
0
 40
0
 40
1
 40
1
 40
1
 40
1
 10
37.887706
 20
3.811749
 30
0.0
 10
38.417270
 20
5.292404
 30
0.0
 10
39.724687
 20
7.511466
 30
0.0
 10
41.301368
 20
9.605700
 30
0.0
  0
SPLINE
  5
19d
100
AcDbEntity
  8
Image
 62
7
100
AcDbSpline
 70
8
 71
3
 72
8
 73
4
 74
0
 40
0
 40
0
 40
0
 40
0
 40
1
 40
1
 40
1
 40
1
 10
41.301368
 20
9.605700
 30
0.0
 10
41.596667
 20
9.997932
 30
0.0
 10
41.873667
 20
10.334610
 30
0.0
 10
42.147453
 20
10.634063
 30
0.0
  0
SPLINE
  5
19e
100
AcDbEntity
  8
Image
 62
7
100
AcDbSpline
 70
8
 71
3
 72
8
 73
4
 74
0
 40
0
 40
0
 40
0
 40
0
 40
1
 40
1
 40
1
 40
1
 10
42.147453
 20
10.634063
 30
0.0
 10
42.239015
 20
10.734210
 30
0.0
 10
42.309598
 20
10.820480
 30
0.0
 10
42.304301
 20
10.825776
 30
0.0
  0
SPLINE
  5
19f
100
AcDbEntity
  8
Image
 62
7
100
AcDbSpline
 70
8
 71
3
 72
8
 73
4
 74
0
 40
0
 40
0
 40
0
 40
0
 40
1
 40
1
 40
1
 40
1
 10
42.304301
 20
10.825776
 30
0.0
 10
42.299006
 20
10.831071
 30
0.0
 10
42.113764
 20
10.848604
 30
0.0
 10
41.892651
 20
10.864739
 30
0.0
  0
SPLINE
  5
1a0
100
AcDbEntity
  8
Image
 62
7
100
AcDbSpline
 70
8
 71
3
 72
8
 73
4
 74
0
 40
0
 40
0
 40
0
 40
0
 40
1
 40
1
 40
1
 40
1
 10
41.892651
 20
10.864739
 30
0.0
 10
41.600115
 20
10.886086
 30
0.0
 10
41.348432
 20
10.886210
 30
0.0
 10
40.968509
 20
10.865197
 30
0.0
  0
SPLINE
  5
1a1
100
AcDbEntity
  8
Image
 62
7
100
AcDbSpline
 70
8
 71
3
 72
8
 73
4
 74
0
 40
0
 40
0
 40
0
 40
0
 40
1
 40
1
 40
1
 40
1
 10
40.968509
 20
10.865197
 30
0.0
 10
40.337833
 20
10.830314
 30
0.0
 10
39.296105
 20
10.703607
 30
0.0
 10
39.187652
 20
10.648589
 30
0.0
  0
SPLINE
  5
1a2
100
AcDbEntity
  8
Image
 62
7
100
AcDbSpline
 70
8
 71
3
 72
8
 73
4
 74
0
 40
0
 40
0
 40
0
 40
0
 40
1
 40
1
 40
1
 40
1
 10
39.187652
 20
10.648589
 30
0.0
 10
39.164739
 20
10.636966
 30
0.0
 10
38.960867
 20
10.385655
 30
0.0
 10
38.734600
 20
10.090120
 30
0.0
  0
SPLINE
  5
1a3
100
AcDbEntity
  8
Image
 62
7
100
AcDbSpline
 70
8
 71
3
 72
8
 73
4
 74
0
 40
0
 40
0
 40
0
 40
0
 40
1
 40
1
 40
1
 40
1
 10
38.734600
 20
10.090120
 30
0.0
 10
37.114443
 20
7.973978
 30
0.0
 10
35.864231
 20
5.924031
 30
0.0
 10
35.784803
 20
5.253403
 30
0.0
  0
SPLINE
  5
1a4
100
AcDbEntity
  8
Image
 62
7
100
AcDbSpline
 70
8
 71
3
 72
8
 73
4
 74
0
 40
0
 40
0
 40
0
 40
0
 40
1
 40
1
 40
1
 40
1
 10
35.784803
 20
5.253403
 30
0.0
 10
35.759379
 20
5.038721
 30
0.0
 10
35.896227
 20
5.013292
 30
0.0
 10
36.213015
 20
5.173833
 30
0.0
  0
LWPOLYLINE
  5
1a5
100
AcDbEntity
  8
Image
 62
7
100
AcDbPolyline
 90
3
 70
0
 10
11.125897
 20
8.798809
 30
0.0
 10
11.227073
 20
8.710427
 30
0.0
 10
11.615376
 20
8.910947
 30
0.0
  0
SPLINE
  5
1a6
100
AcDbEntity
  8
Image
 62
7
100
AcDbSpline
 70
8
 71
3
 72
8
 73
4
 74
0
 40
0
 40
0
 40
0
 40
0
 40
1
 40
1
 40
1
 40
1
 10
36.213058
 20
5.107607
 30
0.0
 10
36.049797
 20
4.956740
 30
0.0
 10
35.784144
 20
4.803437
 30
0.0
 10
35.686280
 20
4.803612
 30
0.0
  0
SPLINE
  5
1a7
100
AcDbEntity
  8
Image
 62
7
100
AcDbSpline
 70
8
 71
3
 72
8
 73
4
 74
0
 40
0
 40
0
 40
0
 40
0
 40
1
 40
1
 40
1
 40
1
 10
35.686280
 20
4.803612
 30
0.0
 10
35.583839
 20
4.803797
 30
0.0
 10
35.457651
 20
4.905657
 30
0.0
 10
35.400882
 20
5.033995
 30
0.0
  0
SPLINE
  5
1a8
100
AcDbEntity
  8
Image
 62
7
100
AcDbSpline
 70
8
 71
3
 72
8
 73
4
 74
0
 40
0
 40
0
 40
0
 40
0
 40
1
 40
1
 40
1
 40
1
 10
35.400882
 20
5.033995
 30
0.0
 10
35.146440
 20
5.609203
 30
0.0
 10
36.038361
 20
7.679619
 30
0.0
 10
37.466934
 20
9.829923
 30
0.0
  0
SPLINE
  5
1a9
100
AcDbEntity
  8
Image
 62
7
100
AcDbSpline
 70
8
 71
3
 72
8
 73
4
 74
0
 40
0
 40
0
 40
0
 40
0
 40
1
 40
1
 40
1
 40
1
 10
37.466934
 20
9.829923
 30
0.0
 10
37.635876
 20
10.084214
 30
0.0
 10
37.777722
 20
10.300466
 30
0.0
 10
37.782151
 20
10.310484
 30
0.0
  0
SPLINE
  5
1aa
100
AcDbEntity
  8
Image
 62
7
100
AcDbSpline
 70
8
 71
3
 72
8
 73
4
 74
0
 40
0
 40
0
 40
0
 40
0
 40
1
 40
1
 40
1
 40
1
 10
37.782151
 20
10.310484
 30
0.0
 10
37.791700
 20
10.332086
 30
0.0
 10
37.322286
 20
10.182217
 30
0.0
 10
36.967120
 20
10.050270
 30
0.0
  0
SPLINE
  5
1ab
100
AcDbEntity
  8
Image
 62
7
100
AcDbSpline
 70
8
 71
3
 72
8
 73
4
 74
0
 40
0
 40
0
 40
0
 40
0
 40
1
 40
1
 40
1
 40
1
 10
36.967120
 20
10.050270
 30
0.0
 10
35.976682
 20
9.682316
 30
0.0
 10
35.247329
 20
9.206097
 30
0.0
 10
35.247329
 20
8.927362
 30
0.0
  0
SPLINE
  5
1ac
100
AcDbEntity
  8
Image
 62
7
100
AcDbSpline
 70
8
 71
3
 72
8
 73
4
 74
0
 40
0
 40
0
 40
0
 40
0
 40
1
 40
1
 40
1
 40
1
 10
35.247329
 20
8.927362
 30
0.0
 10
35.247329
 20
8.811303
 30
0.0
 10
35.198711
 20
8.812046
 30
0.0
 10
35.086679
 20
8.929817
 30
0.0
  0
SPLINE
  5
1ad
100
AcDbEntity
  8
Image
 62
7
100
AcDbSpline
 70
8
 71
3
 72
8
 73
4
 74
0
 40
0
 40
0
 40
0
 40
0
 40
1
 40
1
 40
1
 40
1
 10
35.086679
 20
8.929817
 30
0.0
 10
34.715646
 20
9.319854
 30
0.0
 10
34.789396
 20
9.681085
 30
0.0
 10
35.310905
 20
10.028085
 30
0.0
  0
SPLINE
  5
1ae
100
AcDbEntity
  8
Image
 62
7
100
AcDbSpline
 70
8
 71
3
 72
8
 73
4
 74
0
 40
0
 40
0
 40
0
 40
0
 40
1
 40
1
 40
1
 40
1
 10
35.310905
 20
10.028085
 30
0.0
 10
35.431108
 20
10.108065
 30
0.0
 10
35.618166
 20
10.213930
 30
0.0
 10
35.726590
 20
10.263340
 30
0.0
  0
SPLINE
  5
1af
100
AcDbEntity
  8
Image
 62
7
100
AcDbSpline
 70
8
 71
3
 72
8
 73
4
 74
0
 40
0
 40
0
 40
0
 40
0
 40
1
 40
1
 40
1
 40
1
 10
35.726590
 20
10.263340
 30
0.0
 10
36.225496
 20
10.490699
 30
0.0
 10
37.177498
 20
10.763968
 30
0.0
 10
37.911704
 20
10.890567
 30
0.0
  0
LWPOLYLINE
  5
1b0
100
AcDbEntity
  8
Image
 62
7
100
AcDbPolyline
 90
3
 70
0
 10
36.213015
 20
5.173833
 30
0.0
 10
36.371808
 20
5.254305
 30
0.0
 10
36.213058
 20
5.107607
 30
0.0
  0
SPLINE
  5
1b1
100
AcDbEntity
  8
Image
 62
7
100
AcDbSpline
 70
8
 71
3
 72
8
 73
4
 74
0
 40
0
 40
0
 40
0
 40
0
 40
1
 40
1
 40
1
 40
1
 10
38.409295
 20
11.163205
 30
0.0
 10
39.492055
 20
12.625813
 30
0.0
 10
40.878313
 20
14.058540
 30
0.0
 10
41.528082
 20
14.386543
 30
0.0
  0
SPLINE
  5
1b2
100
AcDbEntity
  8
Image
 62
7
100
AcDbSpline
 70
8
 71
3
 72
8
 73
4
 74
0
 40
0
 40
0
 40
0
 40
0
 40
1
 40
1
 40
1
 40
1
 10
41.528082
 20
14.386543
 30
0.0
 10
41.646996
 20
14.446571
 30
0.0
 10
41.720397
 20
14.465756
 30
0.0
 10
41.826299
 20
14.464491
 30
0.0
  0
SPLINE
  5
1b3
100
AcDbEntity
  8
Image
 62
7
100
AcDbSpline
 70
8
 71
3
 72
8
 73
4
 74
0
 40
0
 40
0
 40
0
 40
0
 40
1
 40
1
 40
1
 40
1
 10
41.826299
 20
14.464491
 30
0.0
 10
42.164937
 20
14.460446
 30
0.0
 10
42.523050
 20
14.146994
 30
0.0
 10
42.642261
 20
13.750288
 30
0.0
  0
LWPOLYLINE
  5
1b4
100
AcDbEntity
  8
Image
 62
7
100
AcDbPolyline
 90
3
 70
0
 10
37.911704
 20
10.890567
 30
0.0
 10
38.250741
 20
10.949027
 30
0.0
 10
38.409295
 20
11.163205
 30
0.0
  0
SPLINE
  5
1b5
100
AcDbEntity
  8
Image
 62
7
100
AcDbSpline
 70
8
 71
3
 72
8
 73
4
 74
0
 40
0
 40
0
 40
0
 40
0
 40
1
 40
1
 40
1
 40
1
 10
42.576729
 20
13.750288
 30
0.0
 10
42.468361
 20
13.830407
 30
0.0
 10
42.311823
 20
13.831318
 30
0.0
 10
42.152954
 20
13.752756
 30
0.0
  0
SPLINE
  5
1b6
100
AcDbEntity
  8
Image
 62
7
100
AcDbSpline
 70
8
 71
3
 72
8
 73
4
 74
0
 40
0
 40
0
 40
0
 40
0
 40
1
 40
1
 40
1
 40
1
 10
42.152954
 20
13.752756
 30
0.0
 10
41.694526
 20
13.526059
 30
0.0
 10
40.736134
 20
12.572954
 30
0.0
 10
39.725296
 20
11.338498
 30
0.0
  0
LWPOLYLINE
  5
1b7
100
AcDbEntity
  8
Image
 62
7
100
AcDbPolyline
 90
3
 70
0
 10
42.642261
 20
13.750288
 30
0.0
 10
42.660977
 20
13.687999
 30
0.0
 10
42.576729
 20
13.750288
 30
0.0
  0
SPLINE
  5
1b8
100
AcDbEntity
  8
Image
 62
7
100
AcDbSpline
 70
8
 71
3
 72
8
 73
4
 74
0
 40
0
 40
0
 40
0
 40
0
 40
1
 40
1
 40
1
 40
1
 10
40.271486
 20
11.111953
 30
0.0
 10
40.674203
 20
11.111167
 30
0.0
 10
41.138552
 20
11.095439
 30
0.0
 10
41.306287
 20
11.076903
 30
0.0
  0
SPLINE
  5
1b9
100
AcDbEntity
  8
Image
 62
7
100
AcDbSpline
 70
8
 71
3
 72
8
 73
4
 74
0
 40
0
 40
0
 40
0
 40
0
 40
1
 40
1
 40
1
 40
1
 10
41.306287
 20
11.076903
 30
0.0
 10
41.661387
 20
11.037662
 30
0.0
 10
42.104831
 20
10.956478
 30
0.0
 10
42.256647
 20
10.902915
 30
0.0
  0
SPLINE
  5
1ba
100
AcDbEntity
  8
Image
 62
7
100
AcDbSpline
 70
8
 71
3
 72
8
 73
4
 74
0
 40
0
 40
0
 40
0
 40
0
 40
1
 40
1
 40
1
 40
1
 10
42.256647
 20
10.902915
 30
0.0
 10
42.361935
 20
10.865765
 30
0.0
 10
42.364245
 20
10.866340
 30
0.0
 10
42.472184
 20
10.956522
 30
0.0
  0
SPLINE
  5
1bb
100
AcDbEntity
  8
Image
 62
7
100
AcDbSpline
 70
8
 71
3
 72
8
 73
4
 74
0
 40
0
 40
0
 40
0
 40
0
 40
1
 40
1
 40
1
 40
1
 10
42.472184
 20
10.956522
 30
0.0
 10
42.593064
 20
11.057513
 30
0.0
 10
42.669389
 20
11.068759
 30
0.0
 10
42.803149
 20
11.005286
 30
0.0
  0
SPLINE
  5
1bc
100
AcDbEntity
  8
Image
 62
7
100
AcDbSpline
 70
8
 71
3
 72
8
 73
4
 74
0
 40
0
 40
0
 40
0
 40
0
 40
1
 40
1
 40
1
 40
1
 10
42.803149
 20
11.005286
 30
0.0
 10
43.015384
 20
10.904573
 30
0.0
 10
43.289770
 20
10.574310
 30
0.0
 10
43.290413
 20
10.418790
 30
0.0
  0
SPLINE
  5
1bd
100
AcDbEntity
  8
Image
 62
7
100
AcDbSpline
 70
8
 71
3
 72
8
 73
4
 74
0
 40
0
 40
0
 40
0
 40
0
 40
1
 40
1
 40
1
 40
1
 10
43.290413
 20
10.418790
 30
0.0
 10
43.290678
 20
10.368128
 30
0.0
 10
43.280462
 20
10.361315
 30
0.0
 10
43.225334
 20
10.375151
 30
0.0
  0
SPLINE
  5
1be
100
AcDbEntity
  8
Image
 62
7
100
AcDbSpline
 70
8
 71
3
 72
8
 73
4
 74
0
 40
0
 40
0
 40
0
 40
0
 40
1
 40
1
 40
1
 40
1
 10
43.225334
 20
10.375151
 30
0.0
 10
43.181902
 20
10.386052
 30
0.0
 10
43.129269
 20
10.372550
 30
0.0
 10
43.068301
 20
10.334871
 30
0.0
  0
SPLINE
  5
1bf
100
AcDbEntity
  8
Image
 62
7
100
AcDbSpline
 70
8
 71
3
 72
8
 73
4
 74
0
 40
0
 40
0
 40
0
 40
0
 40
1
 40
1
 40
1
 40
1
 10
43.068301
 20
10.334871
 30
0.0
 10
42.874091
 20
10.214844
 30
0.0
 10
42.339009
 20
9.582005
 30
0.0
 10
41.937228
 20
8.997159
 30
0.0
  0
LWPOLYLINE
  5
1c0
100
AcDbEntity
  8
Image
 62
7
100
AcDbPolyline
 90
3
 70
0
 10
39.725296
 20
11.338498
 30
0.0
 10
39.540958
 20
11.113379
 30
0.0
 10
40.271486
 20
11.111953
 30
0.0
  0
SPLINE
  5
1c1
100
AcDbEntity
  8
Image
 62
7
100
AcDbSpline
 70
8
 71
3
 72
8
 73
4
 74
0
 40
0
 40
0
 40
0
 40
0
 40
1
 40
1
 40
1
 40
1
 10
42.036055
 20
9.011856
 30
0.0
 10
43.207813
 20
10.140767
 30
0.0
 10
44.724706
 20
11.096678
 30
0.0
 10
45.144693
 20
10.970847
 30
0.0
  0
SPLINE
  5
1c2
100
AcDbEntity
  8
Image
 62
7
100
AcDbSpline
 70
8
 71
3
 72
8
 73
4
 74
0
 40
0
 40
0
 40
0
 40
0
 40
1
 40
1
 40
1
 40
1
 10
45.144693
 20
10.970847
 30
0.0
 10
45.321344
 20
10.917921
 30
0.0
 10
45.671912
 20
10.492838
 30
0.0
 10
45.671912
 20
10.331563
 30
0.0
  0
SPLINE
  5
1c3
100
AcDbEntity
  8
Image
 62
7
100
AcDbSpline
 70
8
 71
3
 72
8
 73
4
 74
0
 40
0
 40
0
 40
0
 40
0
 40
1
 40
1
 40
1
 40
1
 10
45.671912
 20
10.331563
 30
0.0
 10
45.671912
 20
10.098333
 30
0.0
 10
45.435539
 20
9.566113
 30
0.0
 10
45.134326
 20
9.121127
 30
0.0
  0
SPLINE
  5
1c4
100
AcDbEntity
  8
Image
 62
7
100
AcDbSpline
 70
8
 71
3
 72
8
 73
4
 74
0
 40
0
 40
0
 40
0
 40
0
 40
1
 40
1
 40
1
 40
1
 10
45.134326
 20
9.121127
 30
0.0
 10
44.845909
 20
8.695044
 30
0.0
 10
44.653592
 20
8.464934
 30
0.0
 10
44.244813
 20
8.056812
 30
0.0
  0
SPLINE
  5
1c5
100
AcDbEntity
  8
Image
 62
7
100
AcDbSpline
 70
8
 71
3
 72
8
 73
4
 74
0
 40
0
 40
0
 40
0
 40
0
 40
1
 40
1
 40
1
 40
1
 10
44.244813
 20
8.056812
 30
0.0
 10
43.676983
 20
7.489892
 30
0.0
 10
43.159341
 20
7.134616
 30
0.0
 10
42.642433
 20
6.957042
 30
0.0
  0
SPLINE
  5
1c6
100
AcDbEntity
  8
Image
 62
7
100
AcDbSpline
 70
8
 71
3
 72
8
 73
4
 74
0
 40
0
 40
0
 40
0
 40
0
 40
1
 40
1
 40
1
 40
1
 10
42.642433
 20
6.957042
 30
0.0
 10
42.355156
 20
6.858353
 30
0.0
 10
41.978982
 20
6.852704
 30
0.0
 10
41.748609
 20
6.943619
 30
0.0
  0
SPLINE
  5
1c7
100
AcDbEntity
  8
Image
 62
7
100
AcDbSpline
 70
8
 71
3
 72
8
 73
4
 74
0
 40
0
 40
0
 40
0
 40
0
 40
1
 40
1
 40
1
 40
1
 10
41.748609
 20
6.943619
 30
0.0
 10
41.465413
 20
7.055381
 30
0.0
 10
41.254897
 20
7.273359
 30
0.0
 10
41.253807
 20
7.455961
 30
0.0
  0
SPLINE
  5
1c8
100
AcDbEntity
  8
Image
 62
7
100
AcDbSpline
 70
8
 71
3
 72
8
 73
4
 74
0
 40
0
 40
0
 40
0
 40
0
 40
1
 40
1
 40
1
 40
1
 10
41.253807
 20
7.455961
 30
0.0
 10
41.253225
 20
7.551694
 30
0.0
 10
41.284710
 20
7.548287
 30
0.0
 10
41.329187
 20
7.447802
 30
0.0
  0
SPLINE
  5
1c9
100
AcDbEntity
  8
Image
 62
7
100
AcDbSpline
 70
8
 71
3
 72
8
 73
4
 74
0
 40
0
 40
0
 40
0
 40
0
 40
1
 40
1
 40
1
 40
1
 10
41.329187
 20
7.447802
 30
0.0
 10
41.372644
 20
7.349628
 30
0.0
 10
41.529423
 20
7.241079
 30
0.0
 10
41.657868
 20
7.220235
 30
0.0
  0
SPLINE
  5
1ca
100
AcDbEntity
  8
Image
 62
7
100
AcDbSpline
 70
8
 71
3
 72
8
 73
4
 74
0
 40
0
 40
0
 40
0
 40
0
 40
1
 40
1
 40
1
 40
1
 10
41.657868
 20
7.220235
 30
0.0
 10
41.851178
 20
7.188865
 30
0.0
 10
42.230244
 20
7.351396
 30
0.0
 10
42.563058
 20
7.608353
 30
0.0
  0
SPLINE
  5
1cb
100
AcDbEntity
  8
Image
 62
7
100
AcDbSpline
 70
8
 71
3
 72
8
 73
4
 74
0
 40
0
 40
0
 40
0
 40
0
 40
1
 40
1
 40
1
 40
1
 10
42.563058
 20
7.608353
 30
0.0
 10
43.177354
 20
8.082636
 30
0.0
 10
44.044968
 20
9.128452
 30
0.0
 10
44.538339
 20
9.989346
 30
0.0
  0
SPLINE
  5
1cc
100
AcDbEntity
  8
Image
 62
7
100
AcDbSpline
 70
8
 71
3
 72
8
 73
4
 74
0
 40
0
 40
0
 40
0
 40
0
 40
1
 40
1
 40
1
 40
1
 10
44.538339
 20
9.989346
 30
0.0
 10
44.696859
 20
10.265950
 30
0.0
 10
44.810471
 20
10.515648
 30
0.0
 10
44.788021
 20
10.538098
 30
0.0
  0
SPLINE
  5
1cd
100
AcDbEntity
  8
Image
 62
7
100
AcDbSpline
 70
8
 71
3
 72
8
 73
4
 74
0
 40
0
 40
0
 40
0
 40
0
 40
1
 40
1
 40
1
 40
1
 10
44.788021
 20
10.538098
 30
0.0
 10
44.721526
 20
10.604593
 30
0.0
 10
43.716120
 20
10.006668
 30
0.0
 10
43.039644
 20
9.498321
 30
0.0
  0
SPLINE
  5
1ce
100
AcDbEntity
  8
Image
 62
7
100
AcDbSpline
 70
8
 71
3
 72
8
 73
4
 74
0
 40
0
 40
0
 40
0
 40
0
 40
1
 40
1
 40
1
 40
1
 10
43.039644
 20
9.498321
 30
0.0
 10
42.435833
 20
9.044578
 30
0.0
 10
41.583655
 20
8.289603
 30
0.0
 10
41.211521
 20
7.878724
 30
0.0
  0
SPLINE
  5
1cf
100
AcDbEntity
  8
Image
 62
7
100
AcDbSpline
 70
8
 71
3
 72
8
 73
4
 74
0
 40
0
 40
0
 40
0
 40
0
 40
1
 40
1
 40
1
 40
1
 10
41.211521
 20
7.878724
 30
0.0
 10
40.864507
 20
7.495577
 30
0.0
 10
39.734654
 20
5.741615
 30
0.0
 10
39.219764
 20
4.786755
 30
0.0
  0
SPLINE
  5
1d0
100
AcDbEntity
  8
Image
 62
7
100
AcDbSpline
 70
8
 71
3
 72
8
 73
4
 74
0
 40
0
 40
0
 40
0
 40
0
 40
1
 40
1
 40
1
 40
1
 10
39.219764
 20
4.786755
 30
0.0
 10
38.931025
 20
4.251291
 30
0.0
 10
38.499420
 20
3.288291
 30
0.0
 10
38.533311
 20
3.255137
 30
0.0
  0
SPLINE
  5
1d1
100
AcDbEntity
  8
Image
 62
7
100
AcDbSpline
 70
8
 71
3
 72
8
 73
4
 74
0
 40
0
 40
0
 40
0
 40
0
 40
1
 40
1
 40
1
 40
1
 10
38.533311
 20
3.255137
 30
0.0
 10
38.537756
 20
3.250790
 30
0.0
 10
38.677448
 20
3.197213
 30
0.0
 10
38.843741
 20
3.136078
 30
0.0
  0
SPLINE
  5
1d2
100
AcDbEntity
  8
Image
 62
7
100
AcDbSpline
 70
8
 71
3
 72
8
 73
4
 74
0
 40
0
 40
0
 40
0
 40
0
 40
1
 40
1
 40
1
 40
1
 10
38.843741
 20
3.136078
 30
0.0
 10
39.319181
 20
2.961287
 30
0.0
 10
40.263535
 20
2.547792
 30
0.0
 10
40.322926
 20
2.488403
 30
0.0
  0
SPLINE
  5
1d3
100
AcDbEntity
  8
Image
 62
7
100
AcDbSpline
 70
8
 71
3
 72
8
 73
4
 74
0
 40
0
 40
0
 40
0
 40
0
 40
1
 40
1
 40
1
 40
1
 10
40.322926
 20
2.488403
 30
0.0
 10
40.331033
 20
2.480294
 30
0.0
 10
40.254976
 20
2.505949
 30
0.0
 10
40.153905
 20
2.545414
 30
0.0
  0
SPLINE
  5
1d4
100
AcDbEntity
  8
Image
 62
7
100
AcDbSpline
 70
8
 71
3
 72
8
 73
4
 74
0
 40
0
 40
0
 40
0
 40
0
 40
1
 40
1
 40
1
 40
1
 10
40.153905
 20
2.545414
 30
0.0
 10
39.958891
 20
2.621562
 30
0.0
 10
38.527987
 20
3.108510
 30
0.0
 10
38.496153
 20
3.109560
 30
0.0
  0
SPLINE
  5
1d5
100
AcDbEntity
  8
Image
 62
7
100
AcDbSpline
 70
8
 71
3
 72
8
 73
4
 74
0
 40
0
 40
0
 40
0
 40
0
 40
1
 40
1
 40
1
 40
1
 10
38.496153
 20
3.109560
 30
0.0
 10
38.449393
 20
3.111103
 30
0.0
 10
38.290037
 20
2.443485
 30
0.0
 10
38.290037
 20
2.246047
 30
0.0
  0
SPLINE
  5
1d6
100
AcDbEntity
  8
Image
 62
7
100
AcDbSpline
 70
8
 71
3
 72
8
 73
4
 74
0
 40
0
 40
0
 40
0
 40
0
 40
1
 40
1
 40
1
 40
1
 10
38.290037
 20
2.246047
 30
0.0
 10
38.290037
 20
2.127758
 30
0.0
 10
38.353204
 20
2.007845
 30
0.0
 10
38.428652
 20
1.982908
 30
0.0
  0
LWPOLYLINE
  5
1d7
100
AcDbEntity
  8
Image
 62
7
100
AcDbPolyline
 90
3
 70
0
 10
41.937228
 20
8.997159
 30
0.0
 10
41.773639
 20
8.759034
 30
0.0
 10
42.036055
 20
9.011856
 30
0.0
  0
SPLINE
  5
1d8
100
AcDbEntity
  8
Image
 62
7
100
AcDbSpline
 70
8
 71
3
 72
8
 73
4
 74
0
 40
0
 40
0
 40
0
 40
0
 40
1
 40
1
 40
1
 40
1
 10
38.422329
 20
1.943982
 30
0.0
 10
38.237268
 20
1.890397
 30
0.0
 10
37.989142
 20
1.951595
 30
0.0
 10
37.844241
 20
2.086562
 30
0.0
  0
SPLINE
  5
1d9
100
AcDbEntity
  8
Image
 62
7
100
AcDbSpline
 70
8
 71
3
 72
8
 73
4
 74
0
 40
0
 40
0
 40
0
 40
0
 40
1
 40
1
 40
1
 40
1
 10
37.844241
 20
2.086562
 30
0.0
 10
37.645451
 20
2.271723
 30
0.0
 10
37.584047
 20
2.633361
 30
0.0
 10
37.677175
 20
3.070492
 30
0.0
  0
SPLINE
  5
1da
100
AcDbEntity
  8
Image
 62
7
100
AcDbSpline
 70
8
 71
3
 72
8
 73
4
 74
0
 40
0
 40
0
 40
0
 40
0
 40
1
 40
1
 40
1
 40
1
 10
37.677175
 20
3.070492
 30
0.0
 10
37.705075
 20
3.201461
 30
0.0
 10
37.724011
 20
3.312983
 30
0.0
 10
37.719251
 20
3.318318
 30
0.0
  0
SPLINE
  5
1db
100
AcDbEntity
  8
Image
 62
7
100
AcDbSpline
 70
8
 71
3
 72
8
 73
4
 74
0
 40
0
 40
0
 40
0
 40
0
 40
1
 40
1
 40
1
 40
1
 10
37.719251
 20
3.318318
 30
0.0
 10
37.702969
 20
3.336577
 30
0.0
 10
37.034864
 20
3.506302
 30
0.0
 10
36.412138
 20
3.650378
 30
0.0
  0
SPLINE
  5
1dc
100
AcDbEntity
  8
Image
 62
7
100
AcDbSpline
 70
8
 71
3
 72
8
 73
4
 74
0
 40
0
 40
0
 40
0
 40
0
 40
1
 40
1
 40
1
 40
1
 10
36.412138
 20
3.650378
 30
0.0
 10
32.870780
 20
4.469717
 30
0.0
 10
28.179911
 20
5.083510
 30
0.0
 10
23.962846
 20
5.279347
 30
0.0
  0
SPLINE
  5
1dd
100
AcDbEntity
  8
Image
 62
7
100
AcDbSpline
 70
8
 71
3
 72
8
 73
4
 74
0
 40
0
 40
0
 40
0
 40
0
 40
1
 40
1
 40
1
 40
1
 10
23.962846
 20
5.279347
 30
0.0
 10
23.206402
 20
5.314475
 30
0.0
 10
21.523677
 20
5.358668
 30
0.0
 10
20.932544
 20
5.358931
 30
0.0
  0
LWPOLYLINE
  5
1de
100
AcDbEntity
  8
Image
 62
7
100
AcDbPolyline
 90
3
 70
0
 10
38.428652
 20
1.982908
 30
0.0
 10
38.488474
 20
1.963135
 30
0.0
 10
38.422329
 20
1.943982
 30
0.0
  0
SPLINE
  5
1df
100
AcDbEntity
  8
Image
 62
7
100
AcDbSpline
 70
8
 71
3
 72
8
 73
4
 74
0
 40
0
 40
0
 40
0
 40
0
 40
1
 40
1
 40
1
 40
1
 10
20.251710
 20
4.967254
 30
0.0
 10
19.644840
 20
3.871238
 30
0.0
 10
19.242544
 20
2.807550
 30
0.0
 10
19.230542
 20
2.267242
 30
0.0
  0
SPLINE
  5
1e0
100
AcDbEntity
  8
Image
 62
7
100
AcDbSpline
 70
8
 71
3
 72
8
 73
4
 74
0
 40
0
 40
0
 40
0
 40
0
 40
1
 40
1
 40
1
 40
1
 10
19.230542
 20
2.267242
 30
0.0
 10
19.226988
 20
2.107259
 30
0.0
 10
19.231103
 20
2.095398
 30
0.0
 10
19.314255
 20
2.025971
 30
0.0
  0
SPLINE
  5
1e1
100
AcDbEntity
  8
Image
 62
7
100
AcDbSpline
 70
8
 71
3
 72
8
 73
4
 74
0
 40
0
 40
0
 40
0
 40
0
 40
1
 40
1
 40
1
 40
1
 10
19.314255
 20
2.025971
 30
0.0
 10
19.400485
 20
1.953973
 30
0.0
 10
19.400855
 20
1.952726
 30
0.0
 10
19.340714
 20
1.936618
 30
0.0
  0
SPLINE
  5
1e2
100
AcDbEntity
  8
Image
 62
7
100
AcDbSpline
 70
8
 71
3
 72
8
 73
4
 74
0
 40
0
 40
0
 40
0
 40
0
 40
1
 40
1
 40
1
 40
1
 10
19.340714
 20
1.936618
 30
0.0
 10
19.243020
 20
1.910452
 30
0.0
 10
19.102399
 20
1.919069
 30
0.0
 10
18.993543
 20
1.957892
 30
0.0
  0
LWPOLYLINE
  5
1e3
100
AcDbEntity
  8
Image
 62
7
100
AcDbPolyline
 90
3
 70
0
 10
20.932544
 20
5.358931
 30
0.0
 10
20.468701
 20
5.359143
 30
0.0
 10
20.251710
 20
4.967254
 30
0.0
  0
SPLINE
  5
1e4
100
AcDbEntity
  8
Image
 62
7
100
AcDbSpline
 70
8
 71
3
 72
8
 73
4
 74
0
 40
0
 40
0
 40
0
 40
0
 40
1
 40
1
 40
1
 40
1
 10
9.613471
 20
7.331830
 30
0.0
 10
10.331561
 20
7.638273
 30
0.0
 10
11.064409
 20
8.177639
 30
0.0
 10
11.064409
 20
8.399701
 30
0.0
  0
SPLINE
  5
1e5
100
AcDbEntity
  8
Image
 62
7
100
AcDbSpline
 70
8
 71
3
 72
8
 73
4
 74
0
 40
0
 40
0
 40
0
 40
0
 40
1
 40
1
 40
1
 40
1
 10
11.064409
 20
8.399701
 30
0.0
 10
11.064409
 20
8.482291
 30
0.0
 10
9.629379
 20
7.524815
 30
0.0
 10
9.425995
 20
7.306524
 30
0.0
  0
SPLINE
  5
1e6
100
AcDbEntity
  8
Image
 62
7
100
AcDbSpline
 70
8
 71
3
 72
8
 73
4
 74
0
 40
0
 40
0
 40
0
 40
0
 40
1
 40
1
 40
1
 40
1
 10
9.425995
 20
7.306524
 30
0.0
 10
9.390716
 20
7.268659
 30
0.0
 10
9.368825
 20
7.237679
 30
0.0
 10
9.377348
 20
7.237679
 30
0.0
  0
SPLINE
  5
1e7
100
AcDbEntity
  8
Image
 62
7
100
AcDbSpline
 70
8
 71
3
 72
8
 73
4
 74
0
 40
0
 40
0
 40
0
 40
0
 40
1
 40
1
 40
1
 40
1
 10
9.377348
 20
7.237679
 30
0.0
 10
9.385871
 20
7.237679
 30
0.0
 10
9.492126
 20
7.280047
 30
0.0
 10
9.613471
 20
7.331830
 30
0.0
  0
LWPOLYLINE
  5
1e8
100
AcDbEntity
  8
Image
 62
7
100
AcDbPolyline
 90
1
 70
1
 10
18.993543
 20
1.957892
 30
0.0
  0
SPLINE
  5
1e9
100
AcDbEntity
  8
Image
 62
7
100
AcDbSpline
 70
8
 71
3
 72
8
 73
4
 74
0
 40
0
 40
0
 40
0
 40
0
 40
1
 40
1
 40
1
 40
1
 10
45.340529
 20
6.825770
 30
0.0
 10
45.181099
 20
6.921351
 30
0.0
 10
45.063370
 20
7.099722
 30
0.0
 10
45.063370
 20
7.245696
 30
0.0
  0
SPLINE
  5
1ea
100
AcDbEntity
  8
Image
 62
7
100
AcDbSpline
 70
8
 71
3
 72
8
 73
4
 74
0
 40
0
 40
0
 40
0
 40
0
 40
1
 40
1
 40
1
 40
1
 10
45.063370
 20
7.245696
 30
0.0
 10
45.063370
 20
7.699567
 30
0.0
 10
45.360071
 20
8.584267
 30
0.0
 10
45.805878
 20
9.459690
 30
0.0
  0
SPLINE
  5
1eb
100
AcDbEntity
  8
Image
 62
7
100
AcDbSpline
 70
8
 71
3
 72
8
 73
4
 74
0
 40
0
 40
0
 40
0
 40
0
 40
1
 40
1
 40
1
 40
1
 10
45.805878
 20
9.459690
 30
0.0
 10
46.200346
 20
10.234299
 30
0.0
 10
46.614588
 20
10.834631
 30
0.0
 10
46.823291
 20
10.934156
 30
0.0
  0
SPLINE
  5
1ec
100
AcDbEntity
  8
Image
 62
7
100
AcDbSpline
 70
8
 71
3
 72
8
 73
4
 74
0
 40
0
 40
0
 40
0
 40
0
 40
1
 40
1
 40
1
 40
1
 10
46.823291
 20
10.934156
 30
0.0
 10
46.906191
 20
10.973687
 30
0.0
 10
46.921274
 20
10.973270
 30
0.0
 10
47.039329
 20
10.928185
 30
0.0
  0
SPLINE
  5
1ed
100
AcDbEntity
  8
Image
 62
7
100
AcDbSpline
 70
8
 71
3
 72
8
 73
4
 74
0
 40
0
 40
0
 40
0
 40
0
 40
1
 40
1
 40
1
 40
1
 10
47.039329
 20
10.928185
 30
0.0
 10
47.253980
 20
10.846208
 30
0.0
 10
47.550454
 20
10.501766
 30
0.0
 10
47.550454
 20
10.334358
 30
0.0
  0
SPLINE
  5
1ee
100
AcDbEntity
  8
Image
 62
7
100
AcDbSpline
 70
8
 71
3
 72
8
 73
4
 74
0
 40
0
 40
0
 40
0
 40
0
 40
1
 40
1
 40
1
 40
1
 10
47.550454
 20
10.334358
 30
0.0
 10
47.550454
 20
10.291890
 30
0.0
 10
47.533338
 20
10.280387
 30
0.0
 10
47.470147
 20
10.280387
 30
0.0
  0
SPLINE
  5
1ef
100
AcDbEntity
  8
Image
 62
7
100
AcDbSpline
 70
8
 71
3
 72
8
 73
4
 74
0
 40
0
 40
0
 40
0
 40
0
 40
1
 40
1
 40
1
 40
1
 10
47.470147
 20
10.280387
 30
0.0
 10
47.425980
 20
10.280387
 30
0.0
 10
47.360541
 20
10.261189
 30
0.0
 10
47.324732
 20
10.237725
 30
0.0
  0
SPLINE
  5
1f0
100
AcDbEntity
  8
Image
 62
7
100
AcDbSpline
 70
8
 71
3
 72
8
 73
4
 74
0
 40
0
 40
0
 40
0
 40
0
 40
1
 40
1
 40
1
 40
1
 10
47.324732
 20
10.237725
 30
0.0
 10
47.116294
 20
10.101151
 30
0.0
 10
46.477507
 20
9.035215
 30
0.0
 10
46.232471
 20
8.415075
 30
0.0
  0
SPLINE
  5
1f1
100
AcDbEntity
  8
Image
 62
7
100
AcDbSpline
 70
8
 71
3
 72
8
 73
4
 74
0
 40
0
 40
0
 40
0
 40
0
 40
1
 40
1
 40
1
 40
1
 10
46.232471
 20
8.415075
 30
0.0
 10
46.105464
 20
8.093650
 30
0.0
 10
45.957736
 20
7.636976
 30
0.0
 10
45.969423
 20
7.601916
 30
0.0
  0
SPLINE
  5
1f2
100
AcDbEntity
  8
Image
 62
7
100
AcDbSpline
 70
8
 71
3
 72
8
 73
4
 74
0
 40
0
 40
0
 40
0
 40
0
 40
1
 40
1
 40
1
 40
1
 10
45.969423
 20
7.601916
 30
0.0
 10
45.974114
 20
7.587846
 30
0.0
 10
46.043038
 20
7.627205
 30
0.0
 10
46.122587
 20
7.689381
 30
0.0
  0
SPLINE
  5
1f3
100
AcDbEntity
  8
Image
 62
7
100
AcDbSpline
 70
8
 71
3
 72
8
 73
4
 74
0
 40
0
 40
0
 40
0
 40
0
 40
1
 40
1
 40
1
 40
1
 10
46.122587
 20
7.689381
 30
0.0
 10
46.779662
 20
8.202947
 30
0.0
 10
48.265075
 20
9.671580
 30
0.0
 10
49.506889
 20
11.035454
 30
0.0
  0
SPLINE
  5
1f4
100
AcDbEntity
  8
Image
 62
7
100
AcDbSpline
 70
8
 71
3
 72
8
 73
4
 74
0
 40
0
 40
0
 40
0
 40
0
 40
1
 40
1
 40
1
 40
1
 10
49.506889
 20
11.035454
 30
0.0
 10
50.045255
 20
11.626736
 30
0.0
 10
50.098309
 20
11.659611
 30
0.0
 10
49.832485
 20
11.237205
 30
0.0
  0
SPLINE
  5
1f5
100
AcDbEntity
  8
Image
 62
7
100
AcDbSpline
 70
8
 71
3
 72
8
 73
4
 74
0
 40
0
 40
0
 40
0
 40
0
 40
1
 40
1
 40
1
 40
1
 10
49.832485
 20
11.237205
 30
0.0
 10
49.331547
 20
10.441191
 30
0.0
 10
48.630131
 20
9.594160
 30
0.0
 10
47.629993
 20
8.577472
 30
0.0
  0
SPLINE
  5
1f6
100
AcDbEntity
  8
Image
 62
7
100
AcDbSpline
 70
8
 71
3
 72
8
 73
4
 74
0
 40
0
 40
0
 40
0
 40
0
 40
1
 40
1
 40
1
 40
1
 10
47.629993
 20
8.577472
 30
0.0
 10
46.629436
 20
7.560355
 30
0.0
 10
45.693497
 20
6.760853
 30
0.0
 10
45.504330
 20
6.761679
 30
0.0
  0
SPLINE
  5
1f7
100
AcDbEntity
  8
Image
 62
7
100
AcDbSpline
 70
8
 71
3
 72
8
 73
4
 74
0
 40
0
 40
0
 40
0
 40
0
 40
1
 40
1
 40
1
 40
1
 10
45.504330
 20
6.761679
 30
0.0
 10
45.472808
 20
6.761812
 30
0.0
 10
45.399097
 20
6.790658
 30
0.0
 10
45.340529
 20
6.825770
 30
0.0
  0
LWPOLYLINE
  5
1f8
100
AcDbEntity
  8
Image
 62
7
100
AcDbPolyline
 90
1
 70
1
 10
9.613471
 20
7.331830
 30
0.0
  0
SPLINE
  5
1f9
100
AcDbEntity
  8
Image
 62
7
100
AcDbSpline
 70
8
 71
3
 72
8
 73
4
 74
0
 40
0
 40
0
 40
0
 40
0
 40
1
 40
1
 40
1
 40
1
 10
26.251492
 20
6.857437
 30
0.0
 10
26.081677
 20
6.943594
 30
0.0
 10
25.885658
 20
7.130505
 30
0.0
 10
25.820780
 20
7.268136
 30
0.0
  0
SPLINE
  5
1fa
100
AcDbEntity
  8
Image
 62
7
100
AcDbSpline
 70
8
 71
3
 72
8
 73
4
 74
0
 40
0
 40
0
 40
0
 40
0
 40
1
 40
1
 40
1
 40
1
 10
25.820780
 20
7.268136
 30
0.0
 10
25.728580
 20
7.463728
 30
0.0
 10
25.792674
 20
7.877745
 30
0.0
 10
25.975363
 20
8.266672
 30
0.0
  0
SPLINE
  5
1fb
100
AcDbEntity
  8
Image
 62
7
100
AcDbSpline
 70
8
 71
3
 72
8
 73
4
 74
0
 40
0
 40
0
 40
0
 40
0
 40
1
 40
1
 40
1
 40
1
 10
25.975363
 20
8.266672
 30
0.0
 10
26.277811
 20
8.910553
 30
0.0
 10
27.004105
 20
9.733952
 30
0.0
 10
27.709429
 20
10.232577
 30
0.0
  0
SPLINE
  5
1fc
100
AcDbEntity
  8
Image
 62
7
100
AcDbSpline
 70
8
 71
3
 72
8
 73
4
 74
0
 40
0
 40
0
 40
0
 40
0
 40
1
 40
1
 40
1
 40
1
 10
27.709429
 20
10.232577
 30
0.0
 10
28.341174
 20
10.679188
 30
0.0
 10
29.133022
 20
11.014227
 30
0.0
 10
29.584957
 20
11.026132
 30
0.0
  0
SPLINE
  5
1fd
100
AcDbEntity
  8
Image
 62
7
100
AcDbSpline
 70
8
 71
3
 72
8
 73
4
 74
0
 40
0
 40
0
 40
0
 40
0
 40
1
 40
1
 40
1
 40
1
 10
29.584957
 20
11.026132
 30
0.0
 10
29.905838
 20
11.034585
 30
0.0
 10
30.299620
 20
10.735556
 30
0.0
 10
30.299620
 20
10.483434
 30
0.0
  0
SPLINE
  5
1fe
100
AcDbEntity
  8
Image
 62
7
100
AcDbSpline
 70
8
 71
3
 72
8
 73
4
 74
0
 40
0
 40
0
 40
0
 40
0
 40
1
 40
1
 40
1
 40
1
 10
30.299620
 20
10.483434
 30
0.0
 10
30.299620
 20
10.448429
 30
0.0
 10
30.256051
 20
10.332697
 30
0.0
 10
30.202799
 20
10.226251
 30
0.0
  0
SPLINE
  5
1ff
100
AcDbEntity
  8
Image
 62
7
100
AcDbSpline
 70
8
 71
3
 72
8
 73
4
 74
0
 40
0
 40
0
 40
0
 40
0
 40
1
 40
1
 40
1
 40
1
 10
30.202799
 20
10.226251
 30
0.0
 10
29.937747
 20
9.696447
 30
0.0
 10
28.859382
 20
8.870344
 30
0.0
 10
27.943490
 20
8.495467
 30
0.0
  0
SPLINE
  5
200
100
AcDbEntity
  8
Image
 62
7
100
AcDbSpline
 70
8
 71
3
 72
8
 73
4
 74
0
 40
0
 40
0
 40
0
 40
0
 40
1
 40
1
 40
1
 40
1
 10
27.943490
 20
8.495467
 30
0.0
 10
27.721912
 20
8.404774
 30
0.0
 10
27.304749
 20
8.296012
 30
0.0
 10
27.178471
 20
8.296012
 30
0.0
  0
SPLINE
  5
201
100
AcDbEntity
  8
Image
 62
7
100
AcDbSpline
 70
8
 71
3
 72
8
 73
4
 74
0
 40
0
 40
0
 40
0
 40
0
 40
1
 40
1
 40
1
 40
1
 10
27.178471
 20
8.296012
 30
0.0
 10
27.087475
 20
8.296012
 30
0.0
 10
27.070354
 20
8.283163
 30
0.0
 10
26.969204
 20
8.138965
 30
0.0
  0
SPLINE
  5
202
100
AcDbEntity
  8
Image
 62
7
100
AcDbSpline
 70
8
 71
3
 72
8
 73
4
 74
0
 40
0
 40
0
 40
0
 40
0
 40
1
 40
1
 40
1
 40
1
 10
26.969204
 20
8.138965
 30
0.0
 10
26.837487
 20
7.951186
 30
0.0
 10
26.686050
 20
7.633278
 30
0.0
 10
26.662758
 20
7.495645
 30
0.0
  0
SPLINE
  5
203
100
AcDbEntity
  8
Image
 62
7
100
AcDbSpline
 70
8
 71
3
 72
8
 73
4
 74
0
 40
0
 40
0
 40
0
 40
0
 40
1
 40
1
 40
1
 40
1
 10
26.662758
 20
7.495645
 30
0.0
 10
26.648765
 20
7.412944
 30
0.0
 10
26.656628
 20
7.385762
 30
0.0
 10
26.709992
 20
7.332399
 30
0.0
  0
SPLINE
  5
204
100
AcDbEntity
  8
Image
 62
7
100
AcDbSpline
 70
8
 71
3
 72
8
 73
4
 74
0
 40
0
 40
0
 40
0
 40
0
 40
1
 40
1
 40
1
 40
1
 10
26.709992
 20
7.332399
 30
0.0
 10
27.050865
 20
6.991525
 30
0.0
 10
28.390104
 20
7.710807
 30
0.0
 10
30.372098
 20
9.299258
 30
0.0
  0
SPLINE
  5
205
100
AcDbEntity
  8
Image
 62
7
100
AcDbSpline
 70
8
 71
3
 72
8
 73
4
 74
0
 40
0
 40
0
 40
0
 40
0
 40
1
 40
1
 40
1
 40
1
 10
30.372098
 20
9.299258
 30
0.0
 10
30.731529
 20
9.587322
 30
0.0
 10
30.828787
 20
9.644172
 30
0.0
 10
30.828787
 20
9.566208
 30
0.0
  0
SPLINE
  5
206
100
AcDbEntity
  8
Image
 62
7
100
AcDbSpline
 70
8
 71
3
 72
8
 73
4
 74
0
 40
0
 40
0
 40
0
 40
0
 40
1
 40
1
 40
1
 40
1
 10
30.828787
 20
9.566208
 30
0.0
 10
30.828787
 20
9.532586
 30
0.0
 10
29.980059
 20
8.762734
 30
0.0
 10
29.532329
 20
8.390236
 30
0.0
  0
SPLINE
  5
207
100
AcDbEntity
  8
Image
 62
7
100
AcDbSpline
 70
8
 71
3
 72
8
 73
4
 74
0
 40
0
 40
0
 40
0
 40
0
 40
1
 40
1
 40
1
 40
1
 10
29.532329
 20
8.390236
 30
0.0
 10
28.304326
 20
7.368574
 30
0.0
 10
27.334559
 20
6.837549
 30
0.0
 10
26.621909
 20
6.796545
 30
0.0
  0
SPLINE
  5
208
100
AcDbEntity
  8
Image
 62
7
100
AcDbSpline
 70
8
 71
3
 72
8
 73
4
 74
0
 40
0
 40
0
 40
0
 40
0
 40
1
 40
1
 40
1
 40
1
 10
26.621909
 20
6.796545
 30
0.0
 10
26.414595
 20
6.784617
 30
0.0
 10
26.385636
 20
6.789378
 30
0.0
 10
26.251492
 20
6.857437
 30
0.0
  0
LWPOLYLINE
  5
209
100
AcDbEntity
  8
Image
 62
7
100
AcDbPolyline
 90
1
 70
1
 10
45.340529
 20
6.825770
 30
0.0
  0
SPLINE
  5
20a
100
AcDbEntity
  8
Image
 62
7
100
AcDbSpline
 70
8
 71
3
 72
8
 73
4
 74
0
 40
0
 40
0
 40
0
 40
0
 40
1
 40
1
 40
1
 40
1
 10
27.584543
 20
8.602333
 30
0.0
 10
28.224038
 20
8.862183
 30
0.0
 10
29.430422
 20
9.868638
 30
0.0
 10
29.837486
 20
10.481906
 30
0.0
  0
SPLINE
  5
20b
100
AcDbEntity
  8
Image
 62
7
100
AcDbSpline
 70
8
 71
3
 72
8
 73
4
 74
0
 40
0
 40
0
 40
0
 40
0
 40
1
 40
1
 40
1
 40
1
 10
29.837486
 20
10.481906
 30
0.0
 10
29.974532
 20
10.688373
 30
0.0
 10
29.980996
 20
10.715744
 30
0.0
 10
29.887251
 20
10.692619
 30
0.0
  0
SPLINE
  5
20c
100
AcDbEntity
  8
Image
 62
7
100
AcDbSpline
 70
8
 71
3
 72
8
 73
4
 74
0
 40
0
 40
0
 40
0
 40
0
 40
1
 40
1
 40
1
 40
1
 10
29.887251
 20
10.692619
 30
0.0
 10
29.613746
 20
10.625151
 30
0.0
 10
28.965160
 20
10.238600
 30
0.0
 10
28.500454
 20
9.866102
 30
0.0
  0
SPLINE
  5
20d
100
AcDbEntity
  8
Image
 62
7
100
AcDbSpline
 70
8
 71
3
 72
8
 73
4
 74
0
 40
0
 40
0
 40
0
 40
0
 40
1
 40
1
 40
1
 40
1
 10
28.500454
 20
9.866102
 30
0.0
 10
28.093252
 20
9.539699
 30
0.0
 10
27.404057
 20
8.810548
 30
0.0
 10
27.244265
 20
8.537090
 30
0.0
  0
SPLINE
  5
20e
100
AcDbEntity
  8
Image
 62
7
100
AcDbSpline
 70
8
 71
3
 72
8
 73
4
 74
0
 40
0
 40
0
 40
0
 40
0
 40
1
 40
1
 40
1
 40
1
 10
27.244265
 20
8.537090
 30
0.0
 10
27.214830
 20
8.486713
 30
0.0
 10
27.376096
 20
8.517633
 30
0.0
 10
27.584543
 20
8.602333
 30
0.0
  0
LWPOLYLINE
  5
20f
100
AcDbEntity
  8
Image
 62
7
100
AcDbPolyline
 90
1
 70
1
 10
26.251492
 20
6.857437
 30
0.0
  0
SPLINE
  5
210
100
AcDbEntity
  8
Image
 62
7
100
AcDbSpline
 70
8
 71
3
 72
8
 73
4
 74
0
 40
0
 40
0
 40
0
 40
0
 40
1
 40
1
 40
1
 40
1
 10
34.378868
 20
10.705686
 30
0.0
 10
33.715709
 20
10.791747
 30
0.0
 10
33.190778
 20
11.072188
 30
0.0
 10
32.984009
 20
11.450882
 30
0.0
  0
SPLINE
  5
211
100
AcDbEntity
  8
Image
 62
7
100
AcDbSpline
 70
8
 71
3
 72
8
 73
4
 74
0
 40
0
 40
0
 40
0
 40
0
 40
1
 40
1
 40
1
 40
1
 10
32.984009
 20
11.450882
 30
0.0
 10
32.919945
 20
11.568212
 30
0.0
 10
32.906401
 20
11.627477
 30
0.0
 10
32.897773
 20
11.828200
 30
0.0
  0
SPLINE
  5
212
100
AcDbEntity
  8
Image
 62
7
100
AcDbSpline
 70
8
 71
3
 72
8
 73
4
 74
0
 40
0
 40
0
 40
0
 40
0
 40
1
 40
1
 40
1
 40
1
 10
32.897773
 20
11.828200
 30
0.0
 10
32.876210
 20
12.329951
 30
0.0
 10
33.067710
 20
12.770647
 30
0.0
 10
33.509334
 20
13.235560
 30
0.0
  0
SPLINE
  5
213
100
AcDbEntity
  8
Image
 62
7
100
AcDbSpline
 70
8
 71
3
 72
8
 73
4
 74
0
 40
0
 40
0
 40
0
 40
0
 40
1
 40
1
 40
1
 40
1
 10
33.509334
 20
13.235560
 30
0.0
 10
34.620470
 20
14.405299
 30
0.0
 10
37.259654
 20
15.291541
 30
0.0
 10
40.538995
 20
15.596132
 30
0.0
  0
SPLINE
  5
214
100
AcDbEntity
  8
Image
 62
7
100
AcDbSpline
 70
8
 71
3
 72
8
 73
4
 74
0
 40
0
 40
0
 40
0
 40
0
 40
1
 40
1
 40
1
 40
1
 10
40.538995
 20
15.596132
 30
0.0
 10
41.807363
 20
15.713940
 30
0.0
 10
43.204249
 20
15.730096
 30
0.0
 10
44.296079
 20
15.639585
 30
0.0
  0
SPLINE
  5
215
100
AcDbEntity
  8
Image
 62
7
100
AcDbSpline
 70
8
 71
3
 72
8
 73
4
 74
0
 40
0
 40
0
 40
0
 40
0
 40
1
 40
1
 40
1
 40
1
 10
44.296079
 20
15.639585
 30
0.0
 10
46.092827
 20
15.490638
 30
0.0
 10
47.940891
 20
15.134690
 30
0.0
 10
48.747693
 20
14.782179
 30
0.0
  0
SPLINE
  5
216
100
AcDbEntity
  8
Image
 62
7
100
AcDbSpline
 70
8
 71
3
 72
8
 73
4
 74
0
 40
0
 40
0
 40
0
 40
0
 40
1
 40
1
 40
1
 40
1
 10
48.747693
 20
14.782179
 30
0.0
 10
48.876723
 20
14.725803
 30
0.0
 10
48.922297
 20
14.655239
 30
0.0
 10
48.813839
 20
14.679762
 30
0.0
  0
SPLINE
  5
217
100
AcDbEntity
  8
Image
 62
7
100
AcDbSpline
 70
8
 71
3
 72
8
 73
4
 74
0
 40
0
 40
0
 40
0
 40
0
 40
1
 40
1
 40
1
 40
1
 10
48.813839
 20
14.679762
 30
0.0
 10
47.870155
 20
14.893132
 30
0.0
 10
46.530308
 20
15.078252
 30
0.0
 10
45.142745
 20
15.186980
 30
0.0
  0
SPLINE
  5
218
100
AcDbEntity
  8
Image
 62
7
100
AcDbSpline
 70
8
 71
3
 72
8
 73
4
 74
0
 40
0
 40
0
 40
0
 40
0
 40
1
 40
1
 40
1
 40
1
 10
45.142745
 20
15.186980
 30
0.0
 10
42.240057
 20
15.414432
 30
0.0
 10
39.675980
 20
15.151882
 30
0.0
 10
37.398129
 20
14.393968
 30
0.0
  0
SPLINE
  5
219
100
AcDbEntity
  8
Image
 62
7
100
AcDbSpline
 70
8
 71
3
 72
8
 73
4
 74
0
 40
0
 40
0
 40
0
 40
0
 40
1
 40
1
 40
1
 40
1
 10
37.398129
 20
14.393968
 30
0.0
 10
35.949120
 20
13.911835
 30
0.0
 10
34.826900
 20
13.310911
 30
0.0
 10
34.139473
 20
12.649029
 30
0.0
  0
SPLINE
  5
21a
100
AcDbEntity
  8
Image
 62
7
100
AcDbSpline
 70
8
 71
3
 72
8
 73
4
 74
0
 40
0
 40
0
 40
0
 40
0
 40
1
 40
1
 40
1
 40
1
 10
34.139473
 20
12.649029
 30
0.0
 10
33.269671
 20
11.811551
 30
0.0
 10
33.411242
 20
11.237358
 30
0.0
 10
34.602486
 20
10.771099
 30
0.0
  0
LWPOLYLINE
  5
21b
100
AcDbEntity
  8
Image
 62
7
100
AcDbPolyline
 90
1
 70
1
 10
27.584543
 20
8.602333
 30
0.0
  0
SPLINE
  5
21c
100
AcDbEntity
  8
Image
 62
7
100
AcDbSpline
 70
8
 71
3
 72
8
 73
4
 74
0
 40
0
 40
0
 40
0
 40
0
 40
1
 40
1
 40
1
 40
1
 10
34.691704
 20
10.681598
 30
0.0
 10
34.611667
 20
10.682905
 30
0.0
 10
34.470890
 20
10.693744
 30
0.0
 10
34.378868
 20
10.705686
 30
0.0
  0
LWPOLYLINE
  5
21d
100
AcDbEntity
  8
Image
 62
7
100
AcDbPolyline
 90
3
 70
0
 10
34.602486
 20
10.771099
 30
0.0
 10
34.837224
 20
10.679222
 30
0.0
 10
34.691704
 20
10.681598
 30
0.0
  0
LWPOLYLINE
  5
21e
100
AcDbEntity
  8
Image
 62
7
100
AcDbPolyline
 90
1
 70
1
 10
34.378868
 20
10.705686
 30
0.0
  0
ENDSEC
  0
SECTION
  2
OBJECTS
  0
DICTIONARY
  5
C
330
0
100
AcDbDictionary
  3
ACAD_GROUP
350
D
  3
ACAD_MLINESTYLE
350
17
  0
DICTIONARY
  5
D
330
C
100
AcDbDictionary
  0
DICTIONARY
  5
1A
330
C
100
AcDbDictionary
  0
DICTIONARY
  5
17
330
C
100
AcDbDictionary
  3
STANDARD
350
18
  0
DICTIONARY
  5
19
330
C
100
AcDbDictionary
  0
ENDSEC
  0
EOF
